<svg width="30" height="30" viewBox="0 0 30 30" fill="none" xmlns="http://www.w3.org/2000/svg">
<path d="M23.1656 5.835C23.5561 5.79708 23.9501 5.84125 24.3225 5.96468C24.6948 6.08811 25.0372 6.28807 25.3277 6.5517C25.6182 6.81533 25.8503 7.13682 26.0091 7.49549C26.168 7.85417 26.25 8.2421 26.25 8.63437V13.125C26.25 13.3736 26.1512 13.6121 25.9754 13.7879C25.7996 13.9637 25.5611 14.0625 25.3125 14.0625H24.5963C23.2912 14.0625 22.38 13.1306 21.8419 12.4275C21.7806 12.3439 21.7058 12.271 21.6206 12.2119L21.5738 12.1894L21.5625 12.1875H21.5569L21.5381 12.1931C21.5194 12.1994 21.4862 12.2219 21.4388 12.2606C21.2871 12.4053 21.1638 12.577 21.075 12.7669C20.8125 13.2937 20.625 14.0813 20.625 15C20.625 15.9225 20.8125 16.71 21.075 17.2312C21.1636 17.4218 21.2869 17.5941 21.4388 17.7394C21.4686 17.7672 21.5028 17.79 21.54 17.8069L21.5588 17.8125H21.5738L21.6206 17.79C21.7058 17.7309 21.7806 17.658 21.8419 17.5744C22.38 16.8713 23.2912 15.9394 24.5963 15.9394H25.3125C25.5608 15.9394 25.799 16.0379 25.9748 16.2133C26.1505 16.3887 26.2495 16.6267 26.25 16.875V21.3656C26.25 21.7579 26.168 22.1458 26.0091 22.5045C25.8503 22.8632 25.6182 23.1847 25.3277 23.4483C25.0372 23.7119 24.6948 23.9119 24.3225 24.0353C23.9501 24.1587 23.5561 24.2029 23.1656 24.165L17.8125 23.7094V24.1537C17.8125 24.5194 18.0881 24.9412 18.7125 25.4194C19.2263 25.8131 19.6875 26.4094 19.6875 27.1875C19.6875 28.2525 18.8494 28.9631 18.0712 29.3512C17.2369 29.7694 16.1494 30 15 30C13.8506 30 12.7631 29.7694 11.9288 29.3512C11.1506 28.9631 10.3125 28.2525 10.3125 27.1875C10.3125 26.4094 10.7738 25.8131 11.2875 25.4194C11.9119 24.9412 12.1875 24.5194 12.1875 24.1537V23.7094L6.83438 24.165C6.44394 24.2029 6.04989 24.1587 5.67754 24.0353C5.30519 23.9119 4.96278 23.7119 4.67231 23.4483C4.38184 23.1847 4.14972 22.8632 3.99088 22.5045C3.83204 22.1458 3.74999 21.7579 3.75 21.3656V16.875C3.75 16.6264 3.84877 16.3879 4.02459 16.2121C4.2004 16.0363 4.43886 15.9375 4.6875 15.9375H5.40375C6.70875 15.9375 7.62 16.8694 8.15812 17.5725C8.21944 17.6561 8.29421 17.729 8.37938 17.7881L8.42625 17.8106L8.4375 17.8125H8.44312L8.46187 17.8069C8.49841 17.7899 8.53197 17.7671 8.56125 17.7394C8.71289 17.5947 8.83624 17.423 8.925 17.2331C9.1875 16.7062 9.375 15.9187 9.375 15C9.375 14.0813 9.1875 13.29 8.925 12.7688C8.83644 12.5782 8.71308 12.4059 8.56125 12.2606C8.5314 12.2328 8.4972 12.21 8.46 12.1931L8.44125 12.1875H8.4375L8.42625 12.1894L8.37938 12.2119C8.32875 12.2419 8.25187 12.3056 8.15812 12.4275C7.62 13.1306 6.70875 14.0625 5.40375 14.0625H4.6875C4.43886 14.0625 4.2004 13.9637 4.02459 13.7879C3.84877 13.6121 3.75 13.3736 3.75 13.125V8.63437C3.74999 8.2421 3.83204 7.85417 3.99088 7.49549C4.14972 7.13682 4.38184 6.81533 4.67231 6.5517C4.96278 6.28807 5.30519 6.08811 5.67754 5.96468C6.04989 5.84125 6.44394 5.79708 6.83438 5.835L12.1875 6.2925V5.84625C12.1875 5.48063 11.9119 5.05875 11.2875 4.58063C10.7738 4.18688 10.3125 3.59063 10.3125 2.8125C10.3125 1.7475 11.1506 1.03688 11.9288 0.64875C12.7631 0.230625 13.8506 0 15 0C16.1494 0 17.2369 0.230625 18.0712 0.64875C18.8494 1.03688 19.6875 1.7475 19.6875 2.8125C19.6875 3.59063 19.2263 4.18688 18.7125 4.58063C18.0881 5.05875 17.8125 5.48063 17.8125 5.84625V6.2925L23.1656 5.835Z" fill="white"/>
</svg>
