<svg width="34" height="34" viewBox="0 0 34 34" fill="none" xmlns="http://www.w3.org/2000/svg">
<path fill-rule="evenodd" clip-rule="evenodd" d="M2.83333 4.24992C2.83333 3.8742 2.98258 3.51386 3.24826 3.24818C3.51394 2.98251 3.87427 2.83325 4.24999 2.83325H29.75C30.1257 2.83325 30.4861 2.98251 30.7517 3.24818C31.0174 3.51386 31.1667 3.8742 31.1667 4.24992C31.1667 4.62564 31.0174 4.98598 30.7517 5.25165C30.4861 5.51733 30.1257 5.66659 29.75 5.66659V21.2499C29.75 21.6256 29.6007 21.986 29.3351 22.2517C29.0694 22.5173 28.7091 22.6666 28.3333 22.6666H21.7982L24.0111 29.3023C24.1298 29.6588 24.102 30.0479 23.9339 30.384C23.7657 30.7201 23.4709 30.9756 23.1143 31.0943C22.7578 31.2131 22.3686 31.1853 22.0326 31.0171C21.6965 30.8489 21.441 30.5541 21.3222 30.1976L18.8133 22.6666H15.1895L12.6792 30.1976C12.5604 30.5541 12.3049 30.8489 11.9688 31.0171C11.6328 31.1853 11.2436 31.2131 10.8871 31.0943C10.5305 30.9756 10.2357 30.7201 10.0676 30.384C9.89938 30.0479 9.8716 29.6588 9.99033 29.3023L12.2017 22.6666H5.66666C5.29094 22.6666 4.9306 22.5173 4.66493 22.2517C4.39925 21.986 4.24999 21.6256 4.24999 21.2499V5.66659C3.87427 5.66659 3.51394 5.51733 3.24826 5.25165C2.98258 4.98598 2.83333 4.62564 2.83333 4.24992ZM16.3696 8.73792C16.1562 8.59557 15.9082 8.51382 15.6521 8.50138C15.3959 8.48893 15.1411 8.54627 14.915 8.66726C14.6889 8.78826 14.4998 8.96838 14.368 9.18841C14.2362 9.40843 14.1666 9.66011 14.1667 9.91659V15.5833C14.1666 15.8397 14.2362 16.0914 14.368 16.3114C14.4998 16.5315 14.6889 16.7116 14.915 16.8326C15.1411 16.9536 15.3959 17.0109 15.6521 16.9985C15.9082 16.986 16.1562 16.9043 16.3696 16.7619L20.6196 13.9286C20.8136 13.7992 20.9727 13.6239 21.0827 13.4183C21.1927 13.2127 21.2503 12.9831 21.2503 12.7499C21.2503 12.5167 21.1927 12.2871 21.0827 12.0815C20.9727 11.8759 20.8136 11.7006 20.6196 11.5713L16.3696 8.73792ZM17.2791 12.7499L17 12.9355V12.5658L17.2791 12.7499Z" fill="white"/>
</svg>
