<svg width="34" height="34" viewBox="0 0 34 34" fill="none" xmlns="http://www.w3.org/2000/svg">
<path d="M2.43666 14.0959C2.43666 14.5517 2.52644 15.003 2.70086 15.4241C2.87529 15.8452 3.13095 16.2278 3.45324 16.5501C3.77554 16.8724 4.15816 17.1281 4.57926 17.3025C5.00036 17.4769 5.4517 17.5667 5.90749 17.5667C6.36329 17.5667 6.81462 17.4769 7.23572 17.3025C7.65683 17.1281 8.03945 16.8724 8.36174 16.5501C8.68404 16.2278 8.9397 15.8452 9.11413 15.4241C9.28855 15.003 9.37833 14.5517 9.37833 14.0959C9.37833 13.6401 9.28855 13.1887 9.11413 12.7676C8.9397 12.3465 8.68404 11.9639 8.36174 11.6416C8.03945 11.3193 7.65683 11.0637 7.23572 10.8892C6.81462 10.7148 6.36329 10.625 5.90749 10.625C5.4517 10.625 5.00036 10.7148 4.57926 10.8892C4.15816 11.0637 3.77554 11.3193 3.45324 11.6416C3.13095 11.9639 2.87529 12.3465 2.70086 12.7676C2.52644 13.1887 2.43666 13.6401 2.43666 14.0959ZM24.6217 14.0959C24.6217 15.0164 24.9873 15.8992 25.6382 16.5501C26.2892 17.201 27.172 17.5667 28.0925 17.5667C29.013 17.5667 29.8958 17.201 30.5467 16.5501C31.1977 15.8992 31.5633 15.0164 31.5633 14.0959C31.5633 13.6401 31.4736 13.1887 31.2991 12.7676C31.1247 12.3465 30.869 11.9639 30.5467 11.6416C30.2244 11.3193 29.8418 11.0637 29.4207 10.8892C28.9996 10.7148 28.5483 10.625 28.0925 10.625C27.6367 10.625 27.1854 10.7148 26.7643 10.8892C26.3432 11.0637 25.9605 11.3193 25.6382 11.6416C25.3159 11.9639 25.0603 12.3465 24.8859 12.7676C24.7114 13.1887 24.6217 13.6401 24.6217 14.0959ZM16.2917 6.37504C15.9159 6.37504 15.5556 6.22579 15.2899 5.96011C15.0242 5.69443 14.875 5.3341 14.875 4.95837V2.12504C14.875 1.74932 15.0242 1.38898 15.2899 1.12331C15.5556 0.85763 15.9159 0.708374 16.2917 0.708374C16.6674 0.708374 17.0277 0.85763 17.2934 1.12331C17.5591 1.38898 17.7083 1.74932 17.7083 2.12504V4.95837C17.7083 5.3341 17.5591 5.69443 17.2934 5.96011C17.0277 6.22579 16.6674 6.37504 16.2917 6.37504ZM24.6075 4.08004C24.3421 3.81619 23.983 3.66808 23.6087 3.66808C23.2345 3.66808 22.8754 3.81619 22.61 4.08004L20.5983 6.07754C20.4655 6.20924 20.3602 6.36592 20.2882 6.53856C20.2163 6.71119 20.1793 6.89636 20.1793 7.08337C20.1793 7.27039 20.2163 7.45556 20.2882 7.62819C20.3602 7.80083 20.4655 7.95751 20.5983 8.08921C20.73 8.22199 20.8867 8.32738 21.0593 8.3993C21.232 8.47123 21.4171 8.50826 21.6042 8.50826C21.7912 8.50826 21.9763 8.47123 22.149 8.3993C22.3216 8.32738 22.4783 8.22199 22.61 8.08921L24.6075 6.07754C24.8713 5.81211 25.0195 5.45305 25.0195 5.07879C25.0195 4.70453 24.8713 4.34547 24.6075 4.08004ZM10.9792 8.50004C10.7833 8.50882 10.5877 8.47684 10.4048 8.40613C10.2219 8.33541 10.0557 8.22749 9.91666 8.08921L7.97583 6.07754C7.78509 5.80754 7.69479 5.47934 7.72054 5.14978C7.7463 4.82021 7.8865 4.51002 8.11686 4.27294C8.34722 4.03585 8.65324 3.88678 8.98193 3.85155C9.31063 3.81633 9.64129 3.89715 9.91666 4.08004L11.985 6.07754C12.1178 6.20924 12.2232 6.36592 12.2951 6.53856C12.367 6.71119 12.404 6.89636 12.404 7.08337C12.404 7.27039 12.367 7.45556 12.2951 7.62819C12.2232 7.80083 12.1178 7.95751 11.985 8.08921C11.8526 8.22051 11.6956 8.32438 11.523 8.39488C11.3504 8.46538 11.1656 8.50112 10.9792 8.50004Z" fill="white"/>
<path d="M23.2333 33.2916V23.7575C21.5032 23.5857 19.8598 22.9163 18.5022 21.8302C17.1445 20.744 16.1307 19.2877 15.5833 17.6375L14.3933 14.0533C14.2943 13.7697 14.2583 13.468 14.2876 13.1691C14.317 12.8702 14.4112 12.5812 14.5635 12.3224C14.7159 12.0635 14.9228 11.841 15.1698 11.6702C15.4169 11.4993 15.6982 11.3844 15.9942 11.3333C16.4965 11.268 17.0058 11.383 17.4312 11.658C17.8567 11.933 18.1708 12.3501 18.3175 12.835L19.4792 16.3058C19.7965 17.276 20.4129 18.1207 21.2401 18.7188C22.0672 19.3169 23.0626 19.6376 24.0833 19.635H30.175C30.9264 19.635 31.6471 19.9335 32.1785 20.4648C32.7098 20.9962 33.0083 21.7169 33.0083 22.4683V33.2916H23.2333ZM13.515 18.3033V18.1191C13.0543 18.609 12.4961 18.9969 11.8763 19.258C11.2566 19.5191 10.589 19.6475 9.91666 19.635H3.83916C3.08772 19.635 2.36705 19.9335 1.83569 20.4648C1.30434 20.9962 1.00583 21.7169 1.00583 22.4683V33.2916H10.7667V23.7575C12.4871 23.5941 14.1245 22.9401 15.4842 21.8733C14.612 20.8157 13.9443 19.6051 13.515 18.3033Z" fill="white"/>
</svg>
