<svg width="40" height="40" viewBox="0 0 40 40" fill="none" xmlns="http://www.w3.org/2000/svg">
<path d="M20 30V8.33335M20 8.33335C20 7.56639 20.1764 6.80971 20.5156 6.12183C20.8548 5.43396 21.3477 4.83333 21.9561 4.36643C22.5646 3.89952 23.2723 3.57884 24.0245 3.42921C24.7767 3.27958 25.5533 3.305 26.2941 3.50351C27.0349 3.70201 27.7202 4.06828 28.2968 4.57398C28.8734 5.07968 29.326 5.71125 29.6194 6.41984C29.9129 7.12842 30.0395 7.89503 29.9893 8.66034C29.9391 9.42565 29.7135 10.1692 29.33 10.8333M20 8.33335C20 7.56639 19.8236 6.80971 19.4844 6.12183C19.1452 5.43396 18.6523 4.83333 18.0439 4.36643C17.4354 3.89952 16.7277 3.57884 15.9755 3.42921C15.2233 3.27958 14.4467 3.305 13.7059 3.50351C12.9651 3.70201 12.2798 4.06828 11.7032 4.57398C11.1266 5.07968 10.674 5.71125 10.3806 6.41984C10.0871 7.12842 9.96053 7.89503 10.0107 8.66034C10.0609 9.42565 10.2865 10.1692 10.67 10.8333M25 21.6667C23.558 21.2452 22.2914 20.3677 21.39 19.1658C20.4886 17.964 20.0009 16.5024 20 15C19.9991 16.5024 19.5114 17.964 18.61 19.1658C17.7086 20.3677 16.442 21.2452 15 21.6667" stroke="white" stroke-width="2" stroke-linecap="round" stroke-linejoin="round"/>
<path d="M29.995 8.54163C30.9747 8.79352 31.8842 9.26504 32.6546 9.92048C33.4251 10.5759 34.0363 11.3981 34.4419 12.3247C34.8476 13.2513 35.0371 14.2581 34.996 15.2688C34.955 16.2795 34.6845 17.2676 34.205 18.1583" stroke="white" stroke-width="2" stroke-linecap="round" stroke-linejoin="round"/>
<path d="M30 30.0001C31.4675 30 32.894 29.5157 34.0582 28.6223C35.2225 27.7289 36.0594 26.4764 36.4392 25.0589C36.819 23.6414 36.7205 22.1382 36.159 20.7823C35.5974 19.4265 34.6042 18.2939 33.3333 17.5601" stroke="white" stroke-width="2" stroke-linecap="round" stroke-linejoin="round"/>
<path d="M33.2783 29.1383C33.3951 30.042 33.3254 30.9601 33.0735 31.8358C32.8216 32.7116 32.3928 33.5264 31.8137 34.2299C31.2345 34.9334 30.5173 35.5108 29.7063 35.9262C28.8953 36.3417 28.0077 36.5865 27.0984 36.6455C26.189 36.7045 25.2773 36.5765 24.4193 36.2693C23.5614 35.9621 22.7756 35.4824 22.1104 34.8596C21.4452 34.2368 20.9147 33.4842 20.5517 32.6484C20.1887 31.8126 20.001 30.9112 20 30C19.999 30.9112 19.8112 31.8126 19.4483 32.6484C19.0853 33.4842 18.5548 34.2368 17.8896 34.8596C17.2244 35.4824 16.4385 35.9621 15.5806 36.2693C14.7227 36.5765 13.8109 36.7045 12.9016 36.6455C11.9923 36.5865 11.1047 36.3417 10.2937 35.9262C9.48267 35.5108 8.76544 34.9334 8.18629 34.2299C7.60715 33.5264 7.17838 32.7116 6.92646 31.8358C6.67455 30.9601 6.60485 30.042 6.72165 29.1383" stroke="white" stroke-width="2" stroke-linecap="round" stroke-linejoin="round"/>
<path d="M9.99999 30.0001C8.53249 30 7.106 29.5157 5.94177 28.6223C4.77754 27.7289 3.94061 26.4764 3.56079 25.0589C3.18096 23.6414 3.27947 22.1382 3.84102 20.7823C4.40258 19.4265 5.3958 18.2939 6.66666 17.5601" stroke="white" stroke-width="2" stroke-linecap="round" stroke-linejoin="round"/>
<path d="M10.005 8.54163C9.02534 8.79352 8.11584 9.26504 7.34538 9.92048C6.57493 10.5759 5.96373 11.3981 5.55807 12.3247C5.15241 13.2513 4.96293 14.2581 5.00398 15.2688C5.04503 16.2795 5.31553 17.2676 5.795 18.1583" stroke="white" stroke-width="2" stroke-linecap="round" stroke-linejoin="round"/>
</svg>
