<svg width="43" height="43" viewBox="0 0 43 43" fill="none" xmlns="http://www.w3.org/2000/svg">
<path d="M21.5 3.58331C22.9255 3.58331 24.2927 4.14961 25.3007 5.15761C26.3087 6.16562 26.875 7.53277 26.875 8.95831V19.7083C26.875 21.1339 26.3087 22.501 25.3007 23.509C24.2927 24.517 22.9255 25.0833 21.5 25.0833C20.0745 25.0833 18.7073 24.517 17.6993 23.509C16.6913 22.501 16.125 21.1339 16.125 19.7083V8.95831C16.125 7.53277 16.6913 6.16562 17.6993 5.15761C18.7073 4.14961 20.0745 3.58331 21.5 3.58331ZM34.0417 19.7083C34.0417 26.0329 29.3654 31.2466 23.2917 32.1246V37.625H19.7083V32.1246C13.6346 31.2466 8.95833 26.0329 8.95833 19.7083H12.5417C12.5417 22.0842 13.4855 24.3628 15.1655 26.0428C16.8455 27.7228 19.1241 28.6666 21.5 28.6666C23.8759 28.6666 26.1545 27.7228 27.8345 26.0428C29.5145 24.3628 30.4583 22.0842 30.4583 19.7083H34.0417Z" fill="white"/>
</svg>
