<svg width="38" height="38" viewBox="0 0 38 38" fill="none" xmlns="http://www.w3.org/2000/svg">
<path fill-rule="evenodd" clip-rule="evenodd" d="M17.0976 4.75H20.9C21.026 4.75 21.1468 4.80004 21.2359 4.88912C21.325 4.9782 21.375 5.09902 21.375 5.225C21.375 9.519 26.0253 12.2051 29.7445 10.0558C29.8531 9.99437 29.9814 9.97815 30.1018 10.0106C30.2222 10.043 30.3251 10.1215 30.3881 10.2291L32.2929 13.5256C32.355 13.6344 32.3716 13.7633 32.3392 13.8843C32.3067 14.0053 32.2277 14.1086 32.1195 14.1716C28.4003 16.3186 28.4003 21.6861 32.1195 23.8355C32.2271 23.8985 32.3056 24.0014 32.338 24.1218C32.3705 24.2422 32.3543 24.3706 32.2929 24.4791L30.3881 27.7756C30.3251 27.8832 30.2222 27.9617 30.1018 27.9942C29.9814 28.0266 29.8531 28.0104 29.7445 27.949C26.0253 25.7996 21.375 28.4834 21.375 32.775C21.375 32.9006 21.3253 33.021 21.2367 33.11C21.1481 33.1991 21.0279 33.2494 20.9024 33.25H17.1C16.974 33.25 16.8532 33.2 16.7641 33.1109C16.675 33.0218 16.625 32.901 16.625 32.775C16.625 28.481 11.9747 25.7972 8.2555 27.9443C8.14672 28.0064 8.0178 28.023 7.89681 27.9905C7.77582 27.9581 7.67256 27.8791 7.6095 27.7709L5.7095 24.4744C5.64792 24.3661 5.63133 24.238 5.66332 24.1176C5.6953 23.9972 5.7733 23.8942 5.8805 23.8308C9.59975 21.6814 9.59975 16.3139 5.8805 14.1645C5.77353 14.1015 5.69548 13.9991 5.66308 13.8792C5.63067 13.7594 5.64648 13.6316 5.70712 13.5232L7.6095 10.2244C7.67295 10.1165 7.77639 10.0381 7.89734 10.0061C8.0183 9.97405 8.14701 9.99105 8.2555 10.0534C11.9747 12.2027 16.625 9.51662 16.625 5.22262C16.625 4.96137 16.8364 4.75 17.0976 4.75ZM13.0625 5.225C13.0625 2.9925 14.8675 1.1875 17.0976 1.1875H20.9C23.1325 1.1875 24.9375 2.9925 24.9375 5.225C24.9382 5.57879 25.0319 5.92618 25.2091 6.23237C25.3864 6.53856 25.641 6.79278 25.9474 6.96958C26.2539 7.14638 26.6014 7.23954 26.9552 7.23972C27.309 7.2399 27.6566 7.1471 27.9633 6.97062C28.89 6.43686 29.9908 6.29263 31.0238 6.56959C32.0568 6.84655 32.9378 7.52207 33.4732 8.44788L35.378 11.7444C36.4919 13.6753 35.8293 16.1405 33.9008 17.2544C33.594 17.4316 33.3393 17.6864 33.1622 17.9932C32.9851 18.3001 32.8919 18.6481 32.8919 19.0024C32.8919 19.3566 32.9851 19.7047 33.1622 20.0115C33.3393 20.3183 33.594 20.5732 33.9008 20.7504C34.8266 21.2859 35.5021 22.1668 35.779 23.1998C36.056 24.2329 35.9118 25.3336 35.378 26.2604L33.4732 29.5569C32.9378 30.4827 32.0568 31.1582 31.0238 31.4352C29.9908 31.7121 28.89 31.5679 27.9633 31.0341C27.6566 30.8576 27.309 30.7648 26.9552 30.765C26.6014 30.7652 26.2539 30.8584 25.9474 31.0352C25.641 31.212 25.3864 31.4662 25.2091 31.7724C25.0319 32.0786 24.9382 32.426 24.9375 32.7798C24.9375 35.0099 23.1325 36.8172 20.9024 36.8172H17.1C16.0296 36.8166 15.0033 36.391 14.2466 35.6339C13.4899 34.8767 13.0649 33.8502 13.0649 32.7798C13.0642 32.426 12.9705 32.0786 12.7932 31.7724C12.616 31.4662 12.3614 31.212 12.0549 31.0352C11.7485 30.8584 11.401 30.7652 11.0472 30.765C10.6934 30.7648 10.3458 30.8576 10.0391 31.0341C9.11233 31.5679 8.01161 31.7121 6.97858 31.4352C5.94555 31.1582 5.06461 30.4827 4.52912 29.5569L2.62437 26.2604C2.09061 25.3336 1.94638 24.2329 2.22334 23.1998C2.5003 22.1668 3.17582 21.2859 4.10162 20.7504C4.40782 20.573 4.66201 20.3182 4.83872 20.0117C5.01543 19.7051 5.10845 19.3574 5.10845 19.0036C5.10845 18.6497 5.01543 18.302 4.83872 17.9955C4.66201 17.6889 4.40782 17.4341 4.10162 17.2568C3.17582 16.7213 2.5003 15.8403 2.22334 14.8073C1.94638 13.7743 2.09061 12.6735 2.62437 11.7467L4.52675 8.44788C5.06223 7.52207 5.94317 6.84655 6.9762 6.56959C8.00923 6.29263 9.10995 6.43686 10.0367 6.97062C10.3434 7.1471 10.691 7.2399 11.0448 7.23972C11.3986 7.23954 11.7461 7.14638 12.0526 6.96958C12.359 6.79278 12.6136 6.53856 12.7909 6.23237C12.9681 5.92618 13.0618 5.57879 13.0625 5.225ZM22.5625 19C22.5625 19.9448 22.1872 20.851 21.5191 21.5191C20.851 22.1872 19.9448 22.5625 19 22.5625C18.0552 22.5625 17.149 22.1872 16.4809 21.5191C15.8128 20.851 15.4375 19.9448 15.4375 19C15.4375 18.0552 15.8128 17.149 16.4809 16.4809C17.149 15.8128 18.0552 15.4375 19 15.4375C19.9448 15.4375 20.851 15.8128 21.5191 16.4809C22.1872 17.149 22.5625 18.0552 22.5625 19ZM26.125 19C26.125 20.8897 25.3743 22.7019 24.0381 24.0381C22.7019 25.3743 20.8897 26.125 19 26.125C17.1103 26.125 15.2981 25.3743 13.9619 24.0381C12.6257 22.7019 11.875 20.8897 11.875 19C11.875 17.1103 12.6257 15.2981 13.9619 13.9619C15.2981 12.6257 17.1103 11.875 19 11.875C20.8897 11.875 22.7019 12.6257 24.0381 13.9619C25.3743 15.2981 26.125 17.1103 26.125 19Z" fill="white"/>
</svg>
