<svg width="53" height="53" viewBox="0 0 53 53" fill="none" xmlns="http://www.w3.org/2000/svg">
<path d="M38.0982 27.5821C37.471 32.8048 34.0503 34.8917 32.5729 36.4066C31.0933 37.9259 31.3583 38.2285 31.4577 40.4567C31.4743 40.7324 31.4342 41.0085 31.34 41.2681C31.2458 41.5277 31.0995 41.7653 30.9099 41.9662C30.7204 42.1671 30.4918 42.3271 30.2381 42.4362C29.9844 42.5454 29.7111 42.6015 29.4349 42.601H23.5651C23.2891 42.6005 23.0161 42.5438 22.7628 42.4343C22.5094 42.3248 22.281 42.1649 22.0915 41.9642C21.902 41.7636 21.7554 41.5264 21.6606 41.2672C21.5658 41.008 21.5248 40.7322 21.5401 40.4567C21.5401 38.2704 21.7432 37.7625 20.4271 36.4066C18.7487 34.7283 14.8002 32.3587 14.8002 25.8419C14.7902 24.2232 15.1155 22.62 15.7558 21.1332C16.3961 19.6465 17.3375 18.3086 18.5205 17.2037C19.7036 16.0988 21.1027 15.251 22.6296 14.7137C24.1566 14.1764 25.7783 13.9613 27.3926 14.0819C29.0068 14.2024 30.5786 14.6561 32.0088 15.4143C33.439 16.1725 34.6966 17.2187 35.7024 18.487C36.7082 19.7554 37.4404 21.2184 37.8527 22.7837C38.265 24.349 38.3486 25.9828 38.0982 27.5821Z" stroke="white" stroke-width="1.5" stroke-linecap="round" stroke-linejoin="round"/>
<path d="M23.0992 42.4796V45.8186C23.0992 46.7306 23.6071 47.4792 24.232 47.4792H28.7657C29.3951 47.4792 29.9008 46.7284 29.9008 45.8186V42.4796M24.7775 19.2037C23.4736 19.2043 22.2232 19.7227 21.3014 20.6449C20.3796 21.5672 19.8617 22.8177 19.8617 24.1217M42.6915 26.2881H46.7416M38.6149 13.0116L41.488 10.1385M40.8232 37.5417L43.6963 40.4126M26.5 5.24927V8.52423M11.5717 10.1363L14.4248 13.0116M9.36333 40.4126L12.2165 37.5417M10.3085 26.2881H6.26062" stroke="white" stroke-width="1.5" stroke-linecap="round" stroke-linejoin="round"/>
</svg>
