<svg width="44" height="44" viewBox="0 0 44 44" fill="none" xmlns="http://www.w3.org/2000/svg">
<path d="M22 3.66675C23.6427 3.66675 25.234 3.88308 26.7483 4.28825L22.8507 8.18408C22.555 8.48096 22.2942 8.81065 22.0733 9.16675H22C19.4618 9.16675 16.9806 9.91941 14.8702 11.3296C12.7598 12.7397 11.1149 14.744 10.1436 17.089C9.17223 19.434 8.91808 22.0143 9.41326 24.5037C9.90844 26.9932 11.1307 29.2798 12.9255 31.0746C14.7202 32.8694 17.0069 34.0917 19.4963 34.5868C21.9858 35.082 24.5661 34.8279 26.9111 33.8565C29.2561 32.8852 31.2604 31.2403 32.6705 29.1299C34.0807 27.0195 34.8333 24.5383 34.8333 22.0001V21.9267C35.1878 21.7067 35.5147 21.447 35.8142 21.1476L39.7118 17.2517C40.117 18.7661 40.3333 20.3574 40.3333 22.0001C40.3333 32.1256 32.1255 40.3334 22 40.3334C11.8745 40.3334 3.66667 32.1256 3.66667 22.0001C3.66667 11.8746 11.8745 3.66675 22 3.66675ZM21.241 12.8646C21.241 14.4247 21.164 16.0069 21.2483 17.5652L20.2583 18.5552C19.9178 18.8958 19.6476 19.3001 19.4633 19.745C19.279 20.19 19.1842 20.6669 19.1842 21.1485C19.1842 21.6301 19.279 22.107 19.4633 22.552C19.6476 22.9969 19.9178 23.4012 20.2583 23.7417C20.5989 24.0823 21.0032 24.3524 21.4481 24.5367C21.8931 24.721 22.37 24.8159 22.8516 24.8159C23.3332 24.8159 23.8101 24.721 24.255 24.5367C24.7 24.3524 25.1043 24.0823 25.4448 23.7417L26.4348 22.7517C27.9932 22.8361 29.5735 22.7591 31.1355 22.7591C30.9907 24.5014 30.3506 26.1659 29.2909 27.5564C28.2311 28.9469 26.7958 30.0053 25.1542 30.6068C23.5126 31.2083 21.7333 31.3278 20.026 30.9513C18.3187 30.5747 16.7548 29.7178 15.5185 28.4816C14.2823 27.2453 13.4254 25.6813 13.0488 23.9741C12.6723 22.2668 12.7918 20.4875 13.3933 18.8459C13.9948 17.2043 15.0532 15.769 16.4437 14.7092C17.8342 13.6495 19.4987 13.0094 21.241 12.8646ZM33.924 3.89958C34.2586 4.03833 34.5447 4.2731 34.746 4.57427C34.9473 4.87543 35.0549 5.22949 35.0552 5.59175V8.94675H38.4083C38.7709 8.94683 39.1253 9.05439 39.4267 9.25585C39.7281 9.4573 39.963 9.7436 40.1017 10.0785C40.2405 10.4135 40.2768 10.7821 40.2061 11.1376C40.1354 11.4932 39.9608 11.8199 39.7045 12.0762L33.22 18.5534C32.8763 18.8973 32.41 19.0905 31.9238 19.0906H27.5L24.1487 22.4437C23.8047 22.7878 23.3381 22.981 22.8516 22.981C22.3651 22.981 21.8985 22.7878 21.5545 22.4437C21.2105 22.0997 21.0172 21.6332 21.0172 21.1467C21.0172 20.6602 21.2105 20.1936 21.5545 19.8496L24.9077 16.5001V12.0744C24.9075 11.8334 24.9548 11.5947 25.047 11.3719C25.1392 11.1492 25.2744 10.9468 25.4448 10.7764L31.9257 4.29558C32.1821 4.03904 32.5088 3.86431 32.8645 3.79349C33.2202 3.72267 33.5889 3.75896 33.924 3.89775" fill="white"/>
</svg>
