<svg width="42" height="42" viewBox="0 0 42 42" fill="none" xmlns="http://www.w3.org/2000/svg">
<path d="M25.0162 8.71507L33.2832 16.9838C33.7677 17.4681 34.0993 18.0839 34.2371 18.7549C34.3749 19.4259 34.3128 20.1226 34.0585 20.7586L29.9197 31.1063C29.6875 31.6856 29.3047 32.1922 28.8108 32.5738C28.317 32.9553 27.7301 33.1979 27.111 33.2763L18.2227 34.3876C17.9941 34.4144 17.7549 34.4471 17.5052 34.4856L16.7282 34.6116L16.3222 34.6851L15.057 34.9301L14.1907 35.1138L12.887 35.4078L11.2157 35.8068L8.49974 36.4998L7.36924 36.8043C7.08395 36.8828 6.78353 36.8883 6.49552 36.8205C6.20752 36.7527 5.94114 36.6137 5.72083 36.4162C5.50051 36.2187 5.3333 35.969 5.23453 35.6901C5.13575 35.4112 5.10858 35.112 5.15549 34.8198L5.21499 34.5643L5.73124 32.6183L6.19324 30.7843L6.59224 29.1131L6.88449 27.8093L7.06824 26.9413L7.31499 25.6778L7.45499 24.8781L7.56699 24.1291L8.72199 14.8891C8.8006 14.2698 9.04342 13.6827 9.42528 13.1889C9.80715 12.695 10.3142 12.3123 10.8937 12.0803L21.2415 7.94157C21.8775 7.68724 22.5742 7.62512 23.2452 7.76293C23.9162 7.90073 24.5319 8.23065 25.0162 8.71507ZM18.5237 18.5238C18.0816 18.9662 17.7661 19.519 17.6101 20.1247C17.454 20.7304 17.4632 21.3669 17.6365 21.9678C17.5089 22.0425 17.3913 22.1331 17.2865 22.2373L10.185 29.3388C10.1385 29.386 10.1063 29.4455 10.0922 29.5103L9.93649 30.1841L9.62499 31.4843L9.47449 32.0986C9.45909 32.1576 9.4594 32.2197 9.47539 32.2786C9.49139 32.3375 9.52251 32.3912 9.56568 32.4344C9.60884 32.4776 9.66254 32.5087 9.72145 32.5247C9.78036 32.5407 9.84243 32.541 9.90149 32.5256L11.1562 32.2193L12.4915 31.9078C12.5559 31.893 12.6147 31.8602 12.6612 31.8133L19.7627 24.7118C19.8669 24.6076 19.9574 24.4905 20.0322 24.3636C20.6252 24.534 21.2527 24.5447 21.8512 24.3945C22.4496 24.2444 22.9977 23.9386 23.44 23.5084C23.8822 23.0781 24.2028 22.5386 24.3694 21.9445C24.5359 21.3504 24.5424 20.7228 24.3883 20.1254C24.2341 19.528 23.9248 18.9819 23.4916 18.5425C23.0584 18.1032 22.5168 17.7861 21.9216 17.6235C21.3264 17.4609 20.6988 17.4586 20.1024 17.6167C19.506 17.7748 18.962 18.0877 18.5255 18.5238H18.5237ZM26.6752 5.42682C26.9764 5.12526 27.3772 4.94393 27.8025 4.91686C28.2278 4.8898 28.6483 5.01886 28.9852 5.27982L29.1497 5.42682L36.575 12.8503C36.8922 13.1645 37.0773 13.5881 37.0924 14.0343C37.1076 14.4805 36.9516 14.9156 36.6564 15.2506C36.3613 15.5856 35.9492 15.7951 35.5047 15.8362C35.0601 15.8773 34.6166 15.747 34.265 15.4718L34.0987 15.3248L26.6752 7.90132C26.3472 7.57315 26.1629 7.12811 26.1629 6.66407C26.1629 6.20004 26.3472 5.755 26.6752 5.42682Z" fill="white"/>
</svg>
