<svg width="40" height="40" viewBox="0 0 40 40" fill="none" xmlns="http://www.w3.org/2000/svg">
<path d="M20 3.33325C10.8167 3.33325 3.33333 10.8166 3.33333 19.9999C3.33333 29.1833 10.8167 36.6666 20 36.6666C21.1051 36.6666 22.1649 36.2276 22.9463 35.4462C23.7277 34.6648 24.1667 33.605 24.1667 32.4999C24.1667 31.4833 23.7833 30.4999 23.1 29.7166C22.9668 29.5636 22.8902 29.3694 22.8833 29.1666C22.8833 28.6999 23.25 28.3333 23.7167 28.3333H26.6667C32.1833 28.3333 36.6667 23.8499 36.6667 18.3333C36.6667 10.0666 29.1833 3.33325 20 3.33325ZM29.1667 21.6666C27.7833 21.6666 26.6667 20.5499 26.6667 19.1666C26.6667 17.7833 27.7833 16.6666 29.1667 16.6666C30.55 16.6666 31.6667 17.7833 31.6667 19.1666C31.6667 20.5499 30.55 21.6666 29.1667 21.6666ZM24.1667 14.9999C22.7833 14.9999 21.6667 13.8833 21.6667 12.4999C21.6667 11.1166 22.7833 9.99992 24.1667 9.99992C25.55 9.99992 26.6667 11.1166 26.6667 12.4999C26.6667 13.8833 25.55 14.9999 24.1667 14.9999ZM8.33333 19.1666C8.33333 17.7833 9.45 16.6666 10.8333 16.6666C12.2167 16.6666 13.3333 17.7833 13.3333 19.1666C13.3333 20.5499 12.2167 21.6666 10.8333 21.6666C9.45 21.6666 8.33333 20.5499 8.33333 19.1666ZM18.3333 12.4999C18.3333 13.8833 17.2167 14.9999 15.8333 14.9999C14.45 14.9999 13.3333 13.8833 13.3333 12.4999C13.3333 11.1166 14.45 9.99992 15.8333 9.99992C17.2167 9.99992 18.3333 11.1166 18.3333 12.4999Z" fill="white"/>
</svg>
