<svg width="46" height="46" viewBox="0 0 46 46" fill="none" xmlns="http://www.w3.org/2000/svg">
<path d="M20.125 2.875H15.8125C14.6688 2.875 13.5719 3.32935 12.7631 4.1381C11.9544 4.94685 11.5 6.04375 11.5 7.1875V38.8125C11.5 39.9562 11.9544 41.0531 12.7631 41.8619C13.5719 42.6706 14.6688 43.125 15.8125 43.125H30.1875C31.3312 43.125 32.4281 42.6706 33.2369 41.8619C34.0456 41.0531 34.5 39.9562 34.5 38.8125V7.1875C34.5 6.04375 34.0456 4.94685 33.2369 4.1381C32.4281 3.32935 31.3312 2.875 30.1875 2.875H25.875M20.125 2.875V5.75H25.875V2.875M20.125 2.875H25.875M20.125 38.8125H25.875" stroke="white" stroke-width="1.5" stroke-linecap="round" stroke-linejoin="round"/>
</svg>
