<svg width="55" height="55" viewBox="0 0 55 55" fill="none" xmlns="http://www.w3.org/2000/svg">
<path fill-rule="evenodd" clip-rule="evenodd" d="M18.3268 3.84998C15.3175 3.84993 12.4254 5.01649 10.2583 7.10445C8.09118 9.19242 6.8179 12.0392 6.70607 15.0464C2.71464 18.1696 0 22.3064 0 28.1993C0 32.7171 1.64214 35.7657 4.05821 38.6257C4.14733 41.3256 5.07836 43.93 6.72101 46.0746C8.36365 48.2191 10.6357 49.7964 13.2192 50.5857C15.8027 51.375 18.5683 51.3368 21.1289 50.4764C23.6896 49.616 25.9172 47.9766 27.5 45.7875C29.0823 47.9782 31.3101 49.6191 33.8715 50.4805C36.4329 51.3419 39.1995 51.3805 41.784 50.5911C44.3685 49.8016 46.6413 48.2236 48.2841 46.0779C49.927 43.9323 50.8577 41.3266 50.9457 38.6257C53.3618 35.7657 55 32.7171 55 28.1993C55 22.3064 52.2814 18.1696 48.29 15.0503C48.2011 12.6671 47.3815 10.3689 45.9425 8.46709C44.5034 6.56532 42.5144 5.15201 40.245 4.41872C37.9757 3.68543 35.5357 3.66762 33.2559 4.3677C30.9761 5.06779 28.9667 6.45192 27.5 8.33248C26.4127 6.9367 25.0213 5.80742 23.4317 5.03064C21.842 4.25386 20.0961 3.85005 18.3268 3.84998ZM11.6089 15.4785C11.6089 14.5963 11.7827 13.7228 12.1203 12.9077C12.4579 12.0927 12.9527 11.3521 13.5765 10.7283C14.2004 10.1045 14.9409 9.60966 15.756 9.27206C16.571 8.93445 17.4446 8.76069 18.3268 8.76069C19.209 8.76069 20.0826 8.93445 20.8976 9.27206C21.7126 9.60966 22.4532 10.1045 23.077 10.7283C23.7008 11.3521 24.1957 12.0927 24.5333 12.9077C24.8709 13.7228 25.0446 14.5963 25.0446 15.4785V23.0293C24.9818 23.7757 24.5536 25.3393 23.5754 26.7653C22.6011 28.1796 21.2536 29.2403 19.4032 29.4485C18.7557 29.5215 18.1636 29.8487 17.7573 30.3581C17.351 30.8676 17.1637 31.5176 17.2366 32.1652C17.3095 32.8127 17.6367 33.4048 18.1462 33.8111C18.6557 34.2174 19.3057 34.4047 19.9532 34.3318C21.8049 34.1278 23.5655 33.4214 25.0446 32.2889V38.1975C25.0446 40.3303 24.1974 42.3758 22.6893 43.8839C21.1811 45.392 19.1357 46.2393 17.0029 46.2393C14.87 46.2393 12.8246 45.392 11.3165 43.8839C9.80833 42.3758 8.96107 40.3303 8.96107 38.1975V38.1228C9.09857 37.3882 9.38143 36.5318 9.7625 35.7578C10.1711 34.925 10.5875 34.4064 10.8704 34.1864C11.1237 33.9865 11.3351 33.7386 11.4926 33.457C11.6502 33.1754 11.7507 32.8655 11.7884 32.545C11.8262 32.2245 11.8005 31.8997 11.7127 31.5892C11.6249 31.2787 11.4769 30.9885 11.277 30.7352C11.0771 30.4818 10.8292 30.2704 10.5476 30.1129C10.2659 29.9553 9.95603 29.8548 9.63555 29.8171C9.31507 29.7793 8.9903 29.8051 8.67976 29.8928C8.36923 29.9806 8.07903 30.1286 7.82571 30.3285C7.04628 30.9758 6.38672 31.755 5.87714 32.6307C5.20379 31.2525 4.87102 29.7328 4.90679 28.1993C4.90679 24.9935 5.99893 22.5421 8.01036 20.4521C8.42433 21.1644 8.92296 21.8239 9.49536 22.4164C10.7407 23.7128 12.2454 24.585 13.4789 24.8639C13.7973 24.9477 14.1293 24.9666 14.4552 24.9195C14.781 24.8723 15.0941 24.7602 15.3757 24.5896C15.6573 24.4191 15.9018 24.1936 16.0945 23.9267C16.2872 23.6597 16.4243 23.3567 16.4976 23.0358C16.5708 22.7148 16.5788 22.3823 16.521 22.0582C16.4632 21.7341 16.3407 21.4249 16.161 21.149C15.9813 20.8732 15.7479 20.6363 15.4748 20.4524C15.2016 20.2686 14.8943 20.1416 14.5711 20.0789L14.4179 20.02C14.2859 19.9603 14.1574 19.8934 14.0329 19.8196C13.3691 19.4095 12.8064 18.855 12.3867 18.1972C11.967 17.5395 11.7011 16.7955 11.6089 16.0207V15.4785ZM35.0507 34.3318C33.1977 34.1285 31.4356 33.4221 29.9554 32.2889V38.1975C29.9554 40.3303 30.8026 42.3758 32.3107 43.8839C33.8189 45.392 35.8643 46.2393 37.9971 46.2393C40.13 46.2393 42.1754 45.392 43.6835 43.8839C45.1917 42.3758 46.0389 40.3303 46.0389 38.1975V38.1228C45.8735 37.3036 45.6042 36.5089 45.2375 35.7578C44.8289 34.925 44.4125 34.4064 44.1296 34.1864C43.8763 33.9865 43.6649 33.7386 43.5074 33.457C43.3498 33.1754 43.2493 32.8655 43.2116 32.545C43.1738 32.2245 43.1995 31.8997 43.2873 31.5892C43.3751 31.2787 43.5231 30.9885 43.723 30.7352C43.923 30.4818 44.1708 30.2704 44.4524 30.1129C44.7341 29.9553 45.044 29.8548 45.3645 29.8171C45.6849 29.7793 46.0097 29.8051 46.3202 29.8928C46.6308 29.9806 46.921 30.1286 47.1743 30.3285C47.9639 30.9571 48.6121 31.7821 49.1229 32.6307C49.7711 31.3264 50.0932 29.9318 50.0932 28.1993C50.0932 24.9935 49.0011 22.5421 46.9896 20.4521C46.5757 21.1644 46.077 21.8239 45.5046 22.4164C44.2593 23.7128 42.7546 24.585 41.5211 24.8639C41.2027 24.9477 40.8707 24.9666 40.5448 24.9195C40.219 24.8723 39.9059 24.7602 39.6243 24.5896C39.3427 24.4191 39.0982 24.1936 38.9055 23.9267C38.7128 23.6597 38.5757 23.3567 38.5024 23.0358C38.4292 22.7148 38.4212 22.3823 38.479 22.0582C38.5368 21.7341 38.6593 21.4249 38.839 21.149C39.0187 20.8732 39.2521 20.6363 39.5252 20.4524C39.7984 20.2686 40.1057 20.1416 40.4289 20.0789L40.5821 20.02C40.7141 19.9603 40.8426 19.8934 40.9671 19.8196C41.6305 19.4099 42.1929 18.856 42.6125 18.199C43.0322 17.5419 43.2983 16.7987 43.3911 16.0246V15.4746C43.3911 13.6929 42.6833 11.9842 41.4235 10.7244C40.1636 9.46453 38.4549 8.75676 36.6732 8.75676C34.8915 8.75676 33.1828 9.46453 31.923 10.7244C30.6631 11.9842 29.9554 13.6929 29.9554 15.4746V23.0293C30.0182 23.7757 30.4464 25.3393 31.4246 26.7653C32.3989 28.1796 33.7425 29.2403 35.5968 29.4485C35.9174 29.4847 36.2278 29.5836 36.5102 29.7396C36.7926 29.8957 37.0415 30.1059 37.2427 30.3581C37.4439 30.6104 37.5934 30.8998 37.6828 31.2099C37.7721 31.5199 37.7995 31.8445 37.7634 32.1652C37.7273 32.4858 37.6284 32.7962 37.4723 33.0786C37.3162 33.361 37.1061 33.6099 36.8538 33.8111C36.6015 34.0123 36.3121 34.1618 36.0021 34.2511C35.692 34.3405 35.3674 34.3679 35.0468 34.3318" fill="#BF00FF"/>
</svg>
