<svg width="56" height="56" viewBox="0 0 56 56" fill="none" xmlns="http://www.w3.org/2000/svg">
<path d="M35 11.6667C35 7.80075 31.866 4.66675 28 4.66675C24.134 4.66675 21 7.80075 21 11.6667V25.6667C21 29.5327 24.134 32.6667 28 32.6667C31.866 32.6667 35 29.5327 35 25.6667V11.6667Z" fill="#BF00FF" stroke="#BF00FF" stroke-width="1.5"/>
<path d="M11.6667 23.3335V25.6668C11.6667 29.9987 13.3875 34.1531 16.4506 37.2162C19.5137 40.2793 23.6682 42.0002 28 42.0002M28 42.0002C32.3319 42.0002 36.4863 40.2793 39.5494 37.2162C42.6125 34.1531 44.3334 29.9987 44.3334 25.6668V23.3335M28 42.0002V51.3335M28 51.3335H21M28 51.3335H35" stroke="#BF00FF" stroke-width="1.5" stroke-linecap="round" stroke-linejoin="round"/>
</svg>
