<svg width="54" height="54" viewBox="0 0 54 54" fill="none" xmlns="http://www.w3.org/2000/svg">
<path d="M23.625 4.5V9M30.375 4.5V9M18 14.625H13.5M18 21.375H13.5M40.5 14.625H36M40.5 21.375H36M29.9993 9H24.0007C21.1725 9 19.755 9 18.8775 9.8775C18 10.7595 18 12.1725 18 15.003V21.0015C18 23.8297 18 25.245 18.8775 26.1248C19.7573 27.0023 21.1725 27.0023 24.0007 27.0023H29.9993C32.8275 27.0023 34.2427 27.0023 35.1225 26.1248C36 25.245 36 23.8297 36 21.0015V15.0007C36 12.1725 36 10.7572 35.1225 9.87975C34.2427 9 32.8275 9 29.9993 9Z" stroke="#BF00FF" stroke-width="1.5" stroke-linecap="round" stroke-linejoin="round"/>
<path d="M8.13825 49.329C8.55225 49.5 9.0765 49.5 10.125 49.5C11.1735 49.5 11.6977 49.5 12.1117 49.329C12.662 49.1002 13.0989 48.6624 13.3267 48.1117C13.5 47.6977 13.5 47.1735 13.5 46.125C13.5 45.0765 13.5 44.5523 13.329 44.1383C13.1002 43.588 12.6624 43.1511 12.1117 42.9232C11.6977 42.75 11.1735 42.75 10.125 42.75C9.0765 42.75 8.55225 42.75 8.13825 42.921C7.58804 43.1498 7.15108 43.5876 6.92325 44.1383C6.75 44.5523 6.75 45.0765 6.75 46.125C6.75 47.1735 6.75 47.6977 6.921 48.1117C7.14985 48.662 7.58761 49.1012 8.13825 49.329ZM25.0132 49.329C25.4272 49.5 25.9515 49.5 27 49.5C28.0485 49.5 28.5728 49.5 28.9868 49.329C29.537 49.1002 29.9739 48.6624 30.2018 48.1117C30.375 47.6977 30.375 47.1735 30.375 46.125C30.375 45.0765 30.375 44.5523 30.204 44.1383C29.9752 43.588 29.5374 43.1511 28.9868 42.9232C28.5728 42.75 28.0485 42.75 27 42.75C25.9515 42.75 25.4272 42.75 25.0132 42.921C24.463 43.1498 24.0261 43.5876 23.7982 44.1383C23.625 44.5523 23.625 45.0765 23.625 46.125C23.625 47.1735 23.625 47.6977 23.796 48.1117C24.0248 48.662 24.4626 49.1012 25.0132 49.329Z" stroke="#BF00FF" stroke-width="1.5" stroke-linejoin="round"/>
<path d="M27 42.75V27M10.125 42.75C10.125 39.591 10.125 38.0092 10.8832 36.8752C11.2116 36.3837 11.6337 35.9616 12.1252 35.6332C13.2592 34.875 14.841 34.875 18 34.875H36C39.159 34.875 40.7408 34.875 41.8748 35.6332C42.3653 35.9617 42.7883 36.3847 43.1168 36.8752C43.875 38.0092 43.875 39.591 43.875 42.75" stroke="#BF00FF" stroke-width="1.5" stroke-linecap="round" stroke-linejoin="round"/>
<path d="M41.8883 49.329C42.3023 49.5 42.8265 49.5 43.875 49.5C44.9235 49.5 45.4477 49.5 45.8617 49.329C46.412 49.1002 46.8489 48.6624 47.0768 48.1117C47.25 47.6977 47.25 47.1735 47.25 46.125C47.25 45.0765 47.25 44.5523 47.079 44.1383C46.8502 43.588 46.4124 43.1511 45.8617 42.9232C45.4477 42.75 44.9235 42.75 43.875 42.75C42.8265 42.75 42.3023 42.75 41.8883 42.921C41.338 43.1498 40.9011 43.5876 40.6732 44.1383C40.5 44.5523 40.5 45.0765 40.5 46.125C40.5 47.1735 40.5 47.6977 40.671 48.1117C40.8998 48.662 41.3376 49.1012 41.8883 49.329Z" stroke="#BF00FF" stroke-width="1.5" stroke-linejoin="round"/>
</svg>
