<svg width="62" height="62" viewBox="0 0 62 62" fill="none" xmlns="http://www.w3.org/2000/svg">
<path d="M43.9167 31C43.9167 35.3917 40.5583 38.75 36.1667 38.75C31.775 38.75 28.4167 35.3917 28.4167 31C28.4167 26.6083 31.775 23.25 36.1667 23.25C40.5583 23.25 43.9167 26.6083 43.9167 31ZM56.8333 18.0833V46.5C56.8333 49.3417 54.5083 51.6667 51.6667 51.6667H10.3333C7.49167 51.6667 5.16667 49.3417 5.16667 46.5V18.0833C5.16667 15.2417 7.49167 12.9167 10.3333 12.9167V10.3333H20.6667V12.9167H25.8333L28.4167 7.75H43.9167L46.5 12.9167H51.6667C54.5083 12.9167 56.8333 15.2417 56.8333 18.0833ZM19.375 23.25C19.375 21.1833 17.5667 19.375 15.5 19.375C13.4333 19.375 11.625 21.1833 11.625 23.25C11.625 25.3167 13.4333 27.125 15.5 27.125C17.5667 27.125 19.375 25.3167 19.375 23.25ZM49.0833 31C49.0833 23.7667 43.4 18.0833 36.1667 18.0833C28.9333 18.0833 23.25 23.7667 23.25 31C23.25 38.2333 28.9333 43.9167 36.1667 43.9167C43.4 43.9167 49.0833 38.2333 49.0833 31Z" fill="#BF00FF"/>
</svg>
