<svg width="41" height="41" viewBox="0 0 41 41" fill="none" xmlns="http://www.w3.org/2000/svg">
<path d="M20.5 3.41663C29.9351 3.41663 37.5833 11.0648 37.5833 20.5C37.5833 29.9351 29.9351 37.5833 20.5 37.5833C11.0648 37.5833 3.41663 29.9351 3.41663 20.5C3.41663 11.0648 11.0648 3.41663 20.5 3.41663ZM12.2948 25.0817L8.57921 28.7939C9.44194 30.0287 10.4894 31.1234 11.685 32.0398L12.206 32.4207L15.9182 28.7051C14.5381 27.9344 13.3747 26.828 12.5357 25.4883L12.2948 25.0817ZM28.7051 25.0817C27.9344 26.4619 26.828 27.6253 25.4883 28.4642L25.0817 28.7034L28.7939 32.4207C30.0287 31.558 31.1234 30.5105 32.0398 29.315L32.4207 28.7939L28.7051 25.0817ZM20.5 13.6666C18.6876 13.6666 16.9496 14.3866 15.6681 15.6681C14.3866 16.9496 13.6666 18.6876 13.6666 20.5C13.6666 22.3123 14.3866 24.0504 15.6681 25.3319C16.9496 26.6134 18.6876 27.3333 20.5 27.3333C22.3123 27.3333 24.0504 26.6134 25.3319 25.3319C26.6134 24.0504 27.3333 22.3123 27.3333 20.5C27.3333 18.6876 26.6134 16.9496 25.3319 15.6681C24.0504 14.3866 22.3123 13.6666 20.5 13.6666ZM12.206 8.57921C10.9712 9.44194 9.8765 10.4894 8.96017 11.685L8.57921 12.206L12.2948 15.9182C13.0655 14.5381 14.1719 13.3747 15.5116 12.5357L15.9182 12.2965L12.206 8.57921ZM28.7939 8.57921L25.0817 12.2948C26.4619 13.0655 27.6253 14.1719 28.4642 15.5116L28.7034 15.9182L32.4207 12.206C31.558 10.9712 30.5105 9.8765 29.315 8.96017L28.7939 8.57921Z" fill="white"/>
</svg>
