<svg width="42" height="42" viewBox="0 0 42 42" fill="none" xmlns="http://www.w3.org/2000/svg">
<g clip-path="url(#clip0_13_81)">
<path d="M21 11.591V36.9633L21.041 36.9469C25.5205 35.0846 30.3238 34.1256 35.175 34.125H36.75V7.875H35.175C31.7133 7.875 28.2762 8.56406 25.077 9.89297C23.6988 10.4672 22.3371 11.0332 21 11.591ZM18.941 5.04492L21 5.90625L23.059 5.04492C26.898 3.44531 31.016 2.625 35.175 2.625H38.0625C40.2363 2.625 42 4.38867 42 6.5625V35.4375C42 37.6113 40.2363 39.375 38.0625 39.375H35.175C31.016 39.375 26.898 40.1953 23.059 41.7949L22.009 42.2297C21.3609 42.5004 20.6391 42.5004 19.991 42.2297L18.941 41.7949C15.102 40.1953 10.984 39.375 6.825 39.375H3.9375C1.76367 39.375 0 37.6113 0 35.4375V6.5625C0 4.38867 1.76367 2.625 3.9375 2.625H6.825C10.984 2.625 15.102 3.44531 18.941 5.04492Z" fill="white"/>
</g>
<defs>
<clipPath id="clip0_13_81">
<rect width="42" height="42" fill="white"/>
</clipPath>
</defs>
</svg>
