<svg width="49" height="39" viewBox="0 0 49 39" fill="none" xmlns="http://www.w3.org/2000/svg">
<path d="M24.7603 6.48984L17.3491 12.4617C16.1164 13.452 15.8791 15.2344 16.8131 16.5064C17.8008 17.8623 19.7225 18.1289 21.047 17.1006L28.6497 11.2201C29.1856 10.8088 29.9513 10.9002 30.3723 11.4334C30.7934 11.9666 30.6939 12.7283 30.158 13.1473L28.5578 14.3813L39.2 24.1312V9.75H39.1464L38.8478 9.55957L33.2894 6.01758C32.118 5.27109 30.7475 4.875 29.3541 4.875C27.685 4.875 26.0619 5.44629 24.7603 6.48984ZM26.5059 15.9656L22.5477 19.0277C20.1359 20.9016 16.637 20.4141 14.8302 17.9461C13.1305 15.6229 13.5592 12.3779 15.8025 10.5727L22.1725 5.44629C21.2844 5.07305 20.3273 4.88262 19.355 4.88262C17.9156 4.875 16.5145 5.30156 15.3125 6.09375L9.8 9.75V26.8125H11.9591L18.9569 33.1652C20.4575 34.5287 22.7773 34.4221 24.1478 32.9291C24.5689 32.4645 24.8522 31.9236 24.9977 31.36L26.2992 32.5482C27.7922 33.9117 30.1197 33.8127 31.4902 32.3273C31.8347 31.9541 32.0873 31.5199 32.2481 31.0705C33.7334 32.0607 35.7547 31.8551 37.0027 30.4992C38.3731 29.0139 38.2736 26.6982 36.7806 25.3348L26.5059 15.9656ZM1.225 9.75C0.55125 9.75 0 10.2984 0 10.9688V26.8125C0 28.1607 1.09484 29.25 2.45 29.25H4.9C6.25516 29.25 7.35 28.1607 7.35 26.8125V9.75H1.225ZM3.675 24.375C3.99989 24.375 4.31147 24.5034 4.54121 24.732C4.77094 24.9605 4.9 25.2705 4.9 25.5938C4.9 25.917 4.77094 26.227 4.54121 26.4555C4.31147 26.6841 3.99989 26.8125 3.675 26.8125C3.35011 26.8125 3.03853 26.6841 2.80879 26.4555C2.57906 26.227 2.45 25.917 2.45 25.5938C2.45 25.2705 2.57906 24.9605 2.80879 24.732C3.03853 24.5034 3.35011 24.375 3.675 24.375ZM41.65 9.75V26.8125C41.65 28.1607 42.7448 29.25 44.1 29.25H46.55C47.9052 29.25 49 28.1607 49 26.8125V10.9688C49 10.2984 48.4487 9.75 47.775 9.75H41.65ZM44.1 25.5938C44.1 25.2705 44.2291 24.9605 44.4588 24.732C44.6885 24.5034 45.0001 24.375 45.325 24.375C45.6499 24.375 45.9615 24.5034 46.1912 24.732C46.4209 24.9605 46.55 25.2705 46.55 25.5938C46.55 25.917 46.4209 26.227 46.1912 26.4555C45.9615 26.6841 45.6499 26.8125 45.325 26.8125C45.0001 26.8125 44.6885 26.6841 44.4588 26.4555C44.2291 26.227 44.1 25.917 44.1 25.5938Z" fill="white"/>
</svg>
