<svg width="53" height="53" viewBox="0 0 53 53" fill="none" xmlns="http://www.w3.org/2000/svg">
<path d="M47.4792 26.4999C47.4792 27.2249 47.3364 27.9428 47.0589 28.6126C46.7815 29.2825 46.3748 29.8911 45.8621 30.4037C45.3495 30.9164 44.7409 31.3231 44.0711 31.6005C43.4012 31.878 42.6833 32.0208 41.9583 32.0208C41.2333 32.0208 40.5154 31.878 39.8456 31.6005C39.1758 31.3231 38.5672 30.9164 38.0545 30.4037C37.5419 29.8911 37.1352 29.2825 36.8577 28.6126C36.5803 27.9428 36.4375 27.2249 36.4375 26.4999C36.4375 25.0357 37.0192 23.6315 38.0545 22.5961C39.0899 21.5607 40.4941 20.9791 41.9583 20.9791C43.4225 20.9791 44.8268 21.5607 45.8621 22.5961C46.8975 23.6315 47.4792 25.0357 47.4792 26.4999ZM29.8125 8.83325C29.8125 9.71178 29.4635 10.5543 28.8423 11.1755C28.2211 11.7968 27.3785 12.1458 26.5 12.1458C25.6215 12.1458 24.7789 11.7968 24.1577 11.1755C23.5365 10.5543 23.1875 9.71178 23.1875 8.83325C23.1875 7.95472 23.5365 7.11218 24.1577 6.49096C24.7789 5.86975 25.6215 5.52075 26.5 5.52075C27.3785 5.52075 28.2211 5.86975 28.8423 6.49096C29.4635 7.11218 29.8125 7.95472 29.8125 8.83325ZM27.6042 25.3958C27.6042 25.8308 27.5185 26.2615 27.352 26.6634C27.1855 27.0653 26.9415 27.4304 26.634 27.738C26.3264 28.0456 25.9612 28.2896 25.5593 28.4561C25.1574 28.6226 24.7267 28.7083 24.2917 28.7083C23.8567 28.7083 23.4259 28.6226 23.024 28.4561C22.6221 28.2896 22.257 28.0456 21.9494 27.738C21.6418 27.4304 21.3978 27.0653 21.2313 26.6634C21.0648 26.2615 20.9792 25.8308 20.9792 25.3958C20.9792 24.5172 21.3282 23.6747 21.9494 23.0535C22.5706 22.4322 23.4131 22.0833 24.2917 22.0833C25.1702 22.0833 26.0127 22.4322 26.634 23.0535C27.2552 23.6747 27.6042 24.5172 27.6042 25.3958ZM14.3542 16.5624C14.3542 17.7338 13.8888 18.8572 13.0605 19.6855C12.2323 20.5138 11.1089 20.9791 9.93749 20.9791C8.76612 20.9791 7.64273 20.5138 6.81444 19.6855C5.98615 18.8572 5.52083 17.7338 5.52083 16.5624C5.52083 15.391 5.98615 14.2676 6.81444 13.4394C7.64273 12.6111 8.76612 12.1458 9.93749 12.1458C11.1089 12.1458 12.2323 12.6111 13.0605 13.4394C13.8888 14.2676 14.3542 15.391 14.3542 16.5624ZM23.1875 43.0624C23.1875 44.2338 22.7222 45.3572 21.8939 46.1855C21.0656 47.0138 19.9422 47.4791 18.7708 47.4791C17.5995 47.4791 16.4761 47.0138 15.6478 46.1855C14.8195 45.3572 14.3542 44.2338 14.3542 43.0624C14.3542 41.891 14.8195 40.7676 15.6478 39.9394C16.4761 39.1111 17.5995 38.6458 18.7708 38.6458C19.9422 38.6458 21.0656 39.1111 21.8939 39.9394C22.7222 40.7676 23.1875 41.891 23.1875 43.0624Z" stroke="white" stroke-width="1.5"/>
<path d="M29.8125 11.0417L38.6458 22.0833M32.0208 34.2292L23.1875 40.8542M17.6667 38.6458L11.0417 20.9792M13.9412 14.6942L23.1875 9.9375M27.6042 25.3958L36.4485 26.1555M26.5 12.1458L24.2917 22.0833" stroke="white" stroke-width="1.5" stroke-linecap="round" stroke-linejoin="round"/>
</svg>
