<svg width="34" height="34" viewBox="0 0 34 34" fill="none" xmlns="http://www.w3.org/2000/svg">
<path d="M9.37833 15.2858C11.4183 19.295 14.705 22.5817 18.7142 24.6217L21.8308 21.505C22.2275 21.1083 22.78 20.995 23.2758 21.1508C24.8625 21.675 26.5625 21.9583 28.3333 21.9583C28.7091 21.9583 29.0694 22.1076 29.3351 22.3733C29.6007 22.6389 29.75 22.9993 29.75 23.375V28.3333C29.75 28.7091 29.6007 29.0694 29.3351 29.3351C29.0694 29.6007 28.7091 29.75 28.3333 29.75C21.946 29.75 15.8203 27.2127 11.3038 22.6962C6.78734 18.1797 4.25 12.054 4.25 5.66667C4.25 5.29094 4.39926 4.93061 4.66493 4.66493C4.93061 4.39926 5.29094 4.25 5.66667 4.25H10.625C11.0007 4.25 11.3611 4.39926 11.6267 4.66493C11.8924 4.93061 12.0417 5.29094 12.0417 5.66667C12.0417 7.4375 12.325 9.1375 12.8492 10.7242C13.005 11.22 12.8917 11.7725 12.495 12.1692L9.37833 15.2858Z" fill="white"/>
</svg>
