<svg width="38" height="38" viewBox="0 0 38 38" fill="none" xmlns="http://www.w3.org/2000/svg">
<g clip-path="url(#clip0_13_73)">
<path d="M38 15.0416C37.9986 14.3889 37.7955 13.7526 37.4185 13.2197C37.0416 12.6869 36.5092 12.2836 35.8942 12.0649C35.7733 12.0256 35.6453 12.0138 35.5193 12.0302C35.3933 12.0466 35.2726 12.0909 35.1658 12.1599C35.0643 12.2353 34.9815 12.3331 34.9238 12.4457C34.8661 12.5582 34.8352 12.6826 34.8333 12.8091V18.8732C34.8352 18.9997 34.8661 19.1241 34.9238 19.2366C34.9815 19.3492 35.0643 19.447 35.1658 19.5224C35.2721 19.5924 35.3929 19.6374 35.5191 19.6538C35.6452 19.6703 35.7735 19.6578 35.8942 19.6174C36.5117 19.3978 37.0459 18.9921 37.4231 18.4561C37.8003 17.9201 38.0018 17.2803 38 16.6249V15.0416ZM32.4583 5.54157C32.4575 5.14243 32.3553 4.75004 32.1615 4.40113C31.9676 4.05222 31.6884 3.7582 31.35 3.54657C30.0358 2.7074 29.0225 3.40407 27.0433 4.3699C22.1305 7.02044 16.6636 8.47937 11.0833 8.62907C10.9724 8.62851 10.8625 8.6513 10.7609 8.69594C10.6593 8.74058 10.5682 8.80608 10.4936 8.8882C10.4189 8.97031 10.3624 9.0672 10.3276 9.17258C10.2928 9.27797 10.2806 9.38949 10.2917 9.4999V23.1007C10.3214 25.5199 11.0168 27.8842 12.3016 29.9342C13.5864 31.9842 15.4109 33.6409 17.575 34.7224C17.9529 34.9093 18.3896 34.9383 18.789 34.8032C19.1884 34.6681 19.5177 34.3799 19.7046 34.002C19.8915 33.6241 19.9205 33.1874 19.7854 32.788C19.6503 32.3886 19.3621 32.0593 18.9842 31.8724C17.3754 31.0741 16.0133 29.8544 15.043 28.3432C14.0727 26.8319 13.5305 25.0858 13.4742 23.2907C18.206 23.6585 22.8127 24.9893 27.0117 27.2016C29.1967 28.2307 30.0833 28.7849 31.3817 28.0091C31.7155 27.7912 31.989 27.4928 32.1772 27.1414C32.3654 26.79 32.462 26.3968 32.4583 25.9982V5.54157ZM7.91667 9.4999C7.91729 9.39383 7.89659 9.28871 7.85579 9.19079C7.81499 9.09288 7.75493 9.00416 7.67917 8.9299C7.53045 8.78655 7.33158 8.707 7.12501 8.70824H5.54167C4.81335 8.70615 4.09179 8.84806 3.4185 9.12582C2.74521 9.40357 2.13347 9.81169 1.61846 10.3267C1.10346 10.8417 0.69534 11.4534 0.417585 12.1267C0.13983 12.8 -0.00208241 13.5216 7.49239e-06 14.2499V17.4166C0.00207867 18.1457 0.147997 18.8672 0.429402 19.5397C0.710807 20.2123 1.12217 20.8228 1.63991 21.3361C2.15765 21.8494 2.7716 22.2556 3.44657 22.5312C4.12154 22.8068 4.84427 22.9466 5.57334 22.9424H7.15667C7.35839 22.9344 7.54942 22.8496 7.69069 22.7054C7.83196 22.5611 7.9128 22.3684 7.91667 22.1666V9.4999Z" fill="white"/>
</g>
<defs>
<clipPath id="clip0_13_73">
<rect width="38" height="38" fill="white"/>
</clipPath>
</defs>
</svg>
