<svg width="34" height="34" viewBox="0 0 34 34" fill="none" xmlns="http://www.w3.org/2000/svg">
<path d="M7.84265 31.0051C8.07164 31.1249 8.32905 31.1798 8.587 31.1638C8.84495 31.1478 9.09361 31.0616 9.30606 30.9144L27.7227 18.1644C27.9109 18.034 28.0647 17.86 28.1709 17.6572C28.2771 17.4544 28.3326 17.2289 28.3326 16.9999C28.3326 16.771 28.2771 16.5455 28.1709 16.3427C28.0647 16.1398 27.9109 15.9658 27.7227 15.8354L9.30606 3.08543C9.09353 2.93837 8.84481 2.85225 8.58684 2.83641C8.32887 2.82056 8.07148 2.87559 7.84255 2.99553C7.61361 3.11547 7.42184 3.29575 7.28802 3.51686C7.15419 3.73797 7.0834 3.99147 7.08331 4.24993V29.7499C7.08327 30.0085 7.15401 30.2622 7.28786 30.4835C7.42171 30.7047 7.61357 30.8851 7.84265 31.0051Z" fill="white"/>
</svg>
