<svg width="41" height="41" viewBox="0 0 41 41" fill="none" xmlns="http://www.w3.org/2000/svg">
<path d="M29.4722 21.337C28.987 25.3772 26.3408 26.9916 25.1979 28.1635C24.0533 29.3389 24.2583 29.5729 24.3352 31.2966C24.348 31.5099 24.3171 31.7235 24.2442 31.9243C24.1713 32.1252 24.0581 32.309 23.9115 32.4644C23.7649 32.6198 23.588 32.7435 23.3917 32.828C23.1955 32.9124 22.984 32.9558 22.7704 32.9554H18.2296C18.0161 32.955 17.8049 32.9112 17.6089 32.8265C17.4129 32.7418 17.2363 32.6181 17.0897 32.4629C16.9431 32.3076 16.8296 32.1242 16.7563 31.9237C16.683 31.7231 16.6512 31.5098 16.6631 31.2966C16.6631 29.6054 16.8202 29.2125 15.8021 28.1635C14.5037 26.8652 11.4492 25.0322 11.4492 19.9909C11.4414 18.7387 11.6931 17.4984 12.1885 16.3483C12.6838 15.1982 13.412 14.1632 14.3272 13.3085C15.2424 12.4538 16.3247 11.7979 17.5059 11.3823C18.6872 10.9666 19.9417 10.8002 21.1905 10.8935C22.4392 10.9867 23.6551 11.3377 24.7615 11.9242C25.8679 12.5107 26.8408 13.3201 27.6189 14.3012C28.3969 15.2824 28.9633 16.4141 29.2823 17.6251C29.6012 18.836 29.6659 20.0999 29.4722 21.337Z" stroke="white" stroke-width="1.5" stroke-linecap="round" stroke-linejoin="round"/>
<path d="M17.8692 32.8615V35.4445C17.8692 36.15 18.2621 36.7291 18.7455 36.7291H22.2527C22.7396 36.7291 23.1308 36.1483 23.1308 35.4445V32.8615M19.1675 14.8556C18.1588 14.8561 17.1916 15.2571 16.4784 15.9705C15.7653 16.684 15.3648 17.6514 15.3648 18.6601M33.0255 20.336H36.1586M29.8719 10.0655L32.0945 7.84292M31.5803 29.0416L33.8028 31.2625M20.5 4.06067V6.59413M8.95167 7.84121L11.1588 10.0655M7.24333 31.2625L9.4505 29.0416M7.9745 20.336H4.84312" stroke="white" stroke-width="1.5" stroke-linecap="round" stroke-linejoin="round"/>
</svg>
