<svg width="55" height="55" viewBox="0 0 55 55" fill="none" xmlns="http://www.w3.org/2000/svg">
<path d="M17.4533 50.4166C16.4267 50.4166 15.5528 50.056 14.8317 49.3349C14.1106 48.6138 13.75 47.7407 13.75 46.7155V8.28429C13.75 7.23013 14.1037 6.35013 14.811 5.64429C15.5184 4.93846 16.3992 4.58478 17.4533 4.58325H37.7254C38.749 4.58325 39.6222 4.94381 40.3448 5.66492C41.0659 6.38603 41.4265 7.25992 41.4265 8.28658V15.652C41.9963 15.7131 42.4913 15.9499 42.9115 16.3624C43.3316 16.7734 43.5417 17.2684 43.5417 17.8474V21.9014C43.5417 22.4804 43.3316 22.9754 42.9115 23.3864C42.4913 23.7973 41.9963 24.0342 41.4265 24.0968V46.7132C41.4265 47.7369 41.0659 48.61 40.3448 49.3326C39.6237 50.0537 38.7506 50.4143 37.7254 50.4143L17.4533 50.4166ZM17.4533 48.1249H37.7254C38.1364 48.1249 38.474 47.9928 38.7383 47.7285C39.0026 47.4641 39.1348 47.1265 39.1348 46.7155V8.28429C39.1348 7.87332 39.0026 7.53568 38.7383 7.27138C38.474 7.00707 38.1364 6.87492 37.7254 6.87492H17.4533C17.0408 6.87492 16.7024 7.00707 16.4381 7.27138C16.1738 7.53568 16.0417 7.87408 16.0417 8.28658V46.7155C16.0417 47.1265 16.1738 47.4641 16.4381 47.7285C16.7024 47.9928 17.0408 48.1249 17.4533 48.1249ZM27.5894 14.4558C28.0905 14.4558 28.5091 14.2877 28.8452 13.9516C29.1813 13.6155 29.3494 13.1953 29.3494 12.6912C29.3494 12.187 29.1813 11.7676 28.8452 11.433C28.5091 11.0985 28.0897 10.9304 27.5871 10.9289C27.0844 10.9273 26.6651 11.0954 26.329 11.433C25.9928 11.7707 25.8248 12.1908 25.8248 12.6935C25.8248 13.1961 25.9928 13.6147 26.329 13.9493C26.6651 14.2839 27.0852 14.4542 27.5894 14.4558Z" fill="white"/>
</svg>
