<svg width="49" height="49" viewBox="0 0 49 49" fill="none" xmlns="http://www.w3.org/2000/svg">
<path d="M24.5 6.1311C23.6965 6.1311 22.9008 6.28937 22.1584 6.59688C21.416 6.90438 20.7415 7.35509 20.1733 7.92328C19.6051 8.49147 19.1544 9.16601 18.8469 9.90839C18.5394 10.6508 18.3811 11.4464 18.3811 12.25C18.3811 13.0535 18.5394 13.8492 18.8469 14.5916C19.1544 15.3339 19.6051 16.0085 20.1733 16.5767C20.7415 17.1449 21.416 17.5956 22.1584 17.9031C22.9008 18.2106 23.6965 18.3689 24.5 18.3689C26.1228 18.3689 27.6792 17.7242 28.8267 16.5767C29.9742 15.4292 30.6189 13.8728 30.6189 12.25C30.6189 10.6272 29.9742 9.07079 28.8267 7.92328C27.6792 6.77577 26.1228 6.1311 24.5 6.1311ZM38.2812 9.18748C37.0629 9.18748 35.8945 9.67146 35.033 10.533C34.1715 11.3945 33.6875 12.5629 33.6875 13.7812C33.6875 14.9996 34.1715 16.168 35.033 17.0295C35.8945 17.891 37.0629 18.375 38.2812 18.375C39.4996 18.375 40.668 17.891 41.5295 17.0295C42.391 16.168 42.875 14.9996 42.875 13.7812C42.875 12.5629 42.391 11.3945 41.5295 10.533C40.668 9.67146 39.4996 9.18748 38.2812 9.18748ZM10.7188 9.18748C9.50041 9.18748 8.33197 9.67146 7.47048 10.533C6.60898 11.3945 6.125 12.5629 6.125 13.7812C6.125 14.9996 6.60898 16.168 7.47048 17.0295C8.33197 17.891 9.50041 18.375 10.7188 18.375C11.9371 18.375 13.1055 17.891 13.967 17.0295C14.8285 16.168 15.3125 14.9996 15.3125 13.7812C15.3125 12.5629 14.8285 11.3945 13.967 10.533C13.1055 9.67146 11.9371 9.18748 10.7188 9.18748ZM15.3125 24.4785C15.3182 23.67 15.6433 22.8966 16.217 22.3269C16.7907 21.7572 17.5665 21.4375 18.375 21.4375H30.625C31.4372 21.4375 32.2162 21.7601 32.7905 22.3345C33.3648 22.9088 33.6875 23.6878 33.6875 24.5V33.6875C33.6883 34.6514 33.5374 35.6094 33.2404 36.5264C32.5623 38.6049 31.1654 40.3736 29.3005 41.5149C27.4357 42.6562 25.2251 43.0953 23.0656 42.7533C20.9062 42.4114 18.9394 41.3108 17.5184 39.6492C16.0974 37.9876 15.3153 35.8738 15.3125 33.6875V24.4785ZM12.25 24.5C12.25 23.3822 12.5471 22.3379 13.0708 21.4375H6.125C5.31277 21.4375 4.53382 21.7601 3.95949 22.3345C3.38516 22.9088 3.0625 23.6878 3.0625 24.5V32.1562C3.06208 33.4097 3.36944 34.6442 3.95759 35.7511C4.54573 36.8581 5.39667 37.8037 6.43567 38.5049C7.47467 39.2061 8.66995 39.6415 9.91655 39.7729C11.1631 39.9042 12.4229 39.7275 13.5852 39.2582C12.7057 37.532 12.2481 35.6218 12.25 33.6844V24.5ZM36.75 24.5V33.6875C36.75 35.6934 36.2692 37.586 35.4147 39.2582C36.5771 39.7275 37.8369 39.9042 39.0835 39.7729C40.3301 39.6415 41.5253 39.2061 42.5643 38.5049C43.6033 37.8037 44.4543 36.8581 45.0424 35.7511C45.6306 34.6442 45.9379 33.4097 45.9375 32.1562V24.5C45.9375 23.6878 45.6148 22.9088 45.0405 22.3345C44.4662 21.7601 43.6872 21.4375 42.875 21.4375H35.9293C36.4499 22.3379 36.75 23.3822 36.75 24.5Z" fill="white"/>
</svg>
