<svg width="49" height="49" viewBox="0 0 49 49" fill="none" xmlns="http://www.w3.org/2000/svg">
<path fill-rule="evenodd" clip-rule="evenodd" d="M10.2083 18.3752C10.2083 10.4821 16.6069 4.0835 24.5 4.0835C32.3931 4.0835 38.7917 10.4821 38.7917 18.3752V30.6252C38.7917 38.5182 32.3931 44.9168 24.5 44.9168C16.6069 44.9168 10.2083 38.5182 10.2083 30.6252V18.3752ZM24.5 18.3752C24.7707 18.3752 25.0304 18.4827 25.2218 18.6742C25.4133 18.8656 25.5208 19.1253 25.5208 19.396V29.3869C25.5208 31.6919 26.0802 33.2314 27.0194 34.1981C27.9525 35.1597 29.4286 35.7293 31.6458 35.7293C31.9166 35.7293 32.1762 35.8369 32.3677 36.0283C32.5591 36.2198 32.6667 36.4794 32.6667 36.7502C32.6667 37.0209 32.5591 37.2806 32.3677 37.472C32.1762 37.6634 31.9166 37.771 31.6458 37.771C29.0988 37.771 27.0021 37.1126 25.5535 35.6201C24.1121 34.1338 23.4792 31.991 23.4792 29.3869V19.396C23.4792 19.1253 23.5867 18.8656 23.7782 18.6742C23.9696 18.4827 24.2293 18.3752 24.5 18.3752ZM24.5 9.18766C19.4101 9.18766 14.2917 13.0311 14.2917 18.6151V31.4255C14.2917 32.6964 14.4795 34.0082 14.8786 35.1658C15.2737 36.3092 15.9097 37.3933 16.8754 38.0772C16.9846 38.1576 17.1087 38.2153 17.2404 38.2472C17.3721 38.279 17.5089 38.2843 17.6427 38.2628C17.7765 38.2412 17.9047 38.1932 18.0198 38.1216C18.1348 38.05 18.2345 37.9561 18.3129 37.8456C18.3913 37.735 18.447 37.61 18.4765 37.4777C18.5061 37.3454 18.5091 37.2086 18.4852 37.0752C18.4613 36.9417 18.4111 36.8144 18.3375 36.7006C18.2639 36.5868 18.1684 36.4888 18.0565 36.4123C17.5665 36.0652 17.1265 35.418 16.808 34.4992C16.4956 33.5927 16.3333 32.5106 16.3333 31.4245V18.6161C16.3333 14.4174 20.2605 11.2293 24.5 11.2293C28.7395 11.2293 32.6667 14.4174 32.6667 18.6151V29.1388C32.6667 29.8136 32.5299 30.3342 32.3257 30.6517C32.1573 30.9151 31.9347 31.0672 31.5346 31.0672C31.1089 31.0672 30.7873 30.8896 30.5464 30.5772C30.2902 30.2454 30.1146 29.7401 30.1146 29.1378V19.6379C30.1173 18.1276 29.5306 16.6757 28.4792 15.5914C27.9624 15.0584 27.344 14.6345 26.6605 14.3446C25.977 14.0548 25.2424 13.9049 24.5 13.9039C23.7575 13.9051 23.0228 14.0551 22.3394 14.3451C21.6559 14.6351 21.0375 15.0592 20.5208 15.5924C19.4694 16.6768 18.8827 18.1286 18.8854 19.639V31.497C18.8854 34.9606 20.68 38.3365 24.6603 39.7555C24.9154 39.8462 25.1962 39.8318 25.4408 39.7155C25.6853 39.5992 25.8737 39.3905 25.9644 39.1353C26.0551 38.8802 26.0407 38.5994 25.9244 38.3548C25.8081 38.1103 25.5994 37.9219 25.3442 37.8312C22.2909 36.744 20.9271 34.2236 20.9271 31.497V19.6379C20.9243 18.66 21.303 17.7196 21.9826 17.0164C22.3092 16.6786 22.7003 16.4097 23.1327 16.2258C23.5652 16.0419 24.0301 15.9466 24.5 15.9456C25.4392 15.9456 26.3446 16.3274 27.0174 17.0175C27.697 17.7206 28.0757 18.661 28.0729 19.639V29.1399C28.0729 30.1107 28.3516 31.0794 28.9325 31.8287C29.2361 32.2306 29.6295 32.5558 30.0814 32.7782C30.5333 33.0007 31.0309 33.1143 31.5346 33.1099C32.6656 33.1099 33.5201 32.5739 34.0448 31.7552C34.5348 30.9896 34.7083 30.0361 34.7083 29.1399V18.6151C34.7083 13.0311 29.5899 9.18766 24.5 9.18766Z" fill="white"/>
</svg>
