<svg width="39" height="39" viewBox="0 0 39 39" fill="none" xmlns="http://www.w3.org/2000/svg">
<path d="M35.62 10.7575C35.4551 10.3604 35.1396 10.0449 34.7425 9.88C34.5472 9.79673 34.3374 9.75257 34.125 9.75H26C25.569 9.75 25.1557 9.92121 24.851 10.226C24.5462 10.5307 24.375 10.944 24.375 11.375C24.375 11.806 24.5462 12.2193 24.851 12.524C25.1557 12.8288 25.569 13 26 13H30.2088L21.125 22.0837L15.7788 16.7213C15.6277 16.5689 15.448 16.4481 15.25 16.3656C15.0519 16.2831 14.8395 16.2406 14.625 16.2406C14.4105 16.2406 14.1981 16.2831 14.0001 16.3656C13.8021 16.4481 13.6223 16.5689 13.4713 16.7213L3.72127 26.4713C3.56896 26.6223 3.44807 26.802 3.36557 27.0001C3.28308 27.1981 3.2406 27.4105 3.2406 27.625C3.2406 27.8395 3.28308 28.0519 3.36557 28.2499C3.44807 28.448 3.56896 28.6277 3.72127 28.7787C3.87234 28.9311 4.05206 29.052 4.25009 29.1344C4.44811 29.2169 4.6605 29.2594 4.87502 29.2594C5.08954 29.2594 5.30194 29.2169 5.49996 29.1344C5.69798 29.052 5.87771 28.9311 6.02877 28.7787L14.625 20.1663L19.9713 25.5288C20.1223 25.6811 20.3021 25.8019 20.5001 25.8844C20.6981 25.9669 20.9105 26.0094 21.125 26.0094C21.3395 26.0094 21.5519 25.9669 21.75 25.8844C21.948 25.8019 22.1277 25.6811 22.2788 25.5288L32.5 15.2912V19.5C32.5 19.931 32.6712 20.3443 32.976 20.649C33.2807 20.9538 33.694 21.125 34.125 21.125C34.556 21.125 34.9693 20.9538 35.2741 20.649C35.5788 20.3443 35.75 19.931 35.75 19.5V11.375C35.7475 11.1626 35.7033 10.9529 35.62 10.7575Z" fill="white"/>
</svg>
