<svg width="213" height="40" viewBox="0 0 213 40" fill="none" xmlns="http://www.w3.org/2000/svg">
<mask id="mask0_76_57" style="mask-type:luminance" maskUnits="userSpaceOnUse" x="3" y="3" width="34" height="34">
<path d="M3.33333 3.9917H36.6667V36.0084H3.33333V3.9917Z" fill="white"/>
</mask>
<g mask="url(#mask0_76_57)">
<path d="M36.5833 17.6751C36.4501 18.2235 36.1606 18.7214 35.75 19.1085L30.25 24.4751C30.1938 24.5332 30.1486 24.601 30.1167 24.6751C30.0983 24.7518 30.0983 24.8318 30.1167 24.9085L31.4167 32.5085C31.525 33.0685 31.4667 33.6485 31.25 34.1751C31.0493 34.6962 30.6946 35.1438 30.2333 35.4585C29.7851 35.7893 29.2548 35.9911 28.7 36.0418H28.4833C27.9951 36.0408 27.5146 35.9207 27.0833 35.6918L20.25 32.1251C20.179 32.0842 20.0986 32.0626 20.0167 32.0626C19.9347 32.0626 19.8543 32.0842 19.7833 32.1251L12.95 35.7085C12.4368 35.9751 11.8604 36.0962 11.2833 36.0585C10.7227 36.0107 10.1863 35.8088 9.73332 35.4751C9.27635 35.1487 8.92333 34.6973 8.71666 34.1751C8.50399 33.6467 8.44618 33.0686 8.54999 32.5085L9.84999 24.9251C9.87424 24.8493 9.87424 24.7677 9.84999 24.6918C9.82306 24.6188 9.78358 24.5512 9.73332 24.4918L4.23332 19.0918C3.83517 18.7043 3.55245 18.2139 3.41666 17.6751C3.25455 17.1314 3.25455 16.5522 3.41666 16.0085C3.59988 15.4733 3.92988 15.0004 4.36899 14.6439C4.8081 14.2873 5.33862 14.0613 5.89999 13.9918L13.4 12.8918C13.4747 12.8899 13.546 12.8602 13.6 12.8085C13.664 12.7603 13.7154 12.6974 13.75 12.6251L17.25 5.65848C17.4883 5.15848 17.865 4.73681 18.3333 4.44181C18.6893 4.21701 19.0888 4.07011 19.5057 4.01075C19.9225 3.9514 20.3471 3.98094 20.7517 4.09743C21.1563 4.21393 21.5316 4.41474 21.8531 4.68666C22.1745 4.95858 22.4347 5.29546 22.6167 5.67514L26.0833 12.6085C26.1252 12.6854 26.1818 12.7534 26.25 12.8085C26.3099 12.8613 26.3868 12.8909 26.4667 12.8918L34.0833 13.9918C34.6367 14.0751 35.1567 14.3118 35.5833 14.6751C36.0017 15.0368 36.3183 15.5018 36.5 16.0251C36.6767 16.5585 36.7067 17.1285 36.5833 17.6751Z" fill="#FFFC2D"/>
</g>
<mask id="mask1_76_57" style="mask-type:luminance" maskUnits="userSpaceOnUse" x="48" y="3" width="34" height="34">
<path d="M48.3333 3.9917H81.6667V36.0084H48.3333V3.9917Z" fill="white"/>
</mask>
<g mask="url(#mask1_76_57)">
<path d="M81.5834 17.6751C81.4501 18.2235 81.1606 18.7214 80.75 19.1085L75.25 24.4751C75.1938 24.5332 75.1486 24.601 75.1167 24.6751C75.0983 24.7518 75.0983 24.8318 75.1167 24.9085L76.4167 32.5085C76.525 33.0685 76.4667 33.6485 76.25 34.1751C76.0493 34.6962 75.6947 35.1438 75.2334 35.4585C74.7851 35.7893 74.2548 35.9911 73.7 36.0418H73.4834C72.9952 36.0408 72.5146 35.9207 72.0834 35.6918L65.25 32.1251C65.1791 32.0842 65.0986 32.0626 65.0167 32.0626C64.9348 32.0626 64.8543 32.0842 64.7834 32.1251L57.95 35.7085C57.4368 35.9751 56.8604 36.0962 56.2834 36.0585C55.7228 36.0107 55.1863 35.8088 54.7334 35.4751C54.2764 35.1487 53.9234 34.6973 53.7167 34.1751C53.504 33.6467 53.4462 33.0686 53.55 32.5085L54.85 24.9251C54.8743 24.8493 54.8743 24.7677 54.85 24.6918C54.8231 24.6188 54.7836 24.5512 54.7334 24.4918L49.2334 19.0918C48.8352 18.7043 48.5525 18.2139 48.4167 17.6751C48.2546 17.1314 48.2546 16.5522 48.4167 16.0085C48.5999 15.4733 48.9299 15.0004 49.369 14.6439C49.8081 14.2873 50.3386 14.0613 50.9 13.9918L58.4 12.8918C58.4747 12.8899 58.5461 12.8602 58.6 12.8085C58.664 12.7603 58.7154 12.6974 58.75 12.6251L62.25 5.65848C62.4884 5.15848 62.865 4.73681 63.3334 4.44181C63.6893 4.21701 64.0889 4.07011 64.5057 4.01075C64.9225 3.9514 65.3472 3.98094 65.7517 4.09743C66.1563 4.21393 66.5317 4.41474 66.8531 4.68666C67.1745 4.95858 67.4348 5.29546 67.6167 5.67514L71.0834 12.6085C71.1252 12.6854 71.1819 12.7534 71.25 12.8085C71.3099 12.8613 71.3868 12.8909 71.4667 12.8918L79.0834 13.9918C79.6367 14.0751 80.1567 14.3118 80.5834 14.6751C81.0017 15.0368 81.3184 15.5018 81.5 16.0251C81.6767 16.5585 81.7067 17.1285 81.5834 17.6751Z" fill="#FFFC2D"/>
</g>
<mask id="mask2_76_57" style="mask-type:luminance" maskUnits="userSpaceOnUse" x="93" y="3" width="34" height="34">
<path d="M93.3333 3.9917H126.667V36.0084H93.3333V3.9917Z" fill="white"/>
</mask>
<g mask="url(#mask2_76_57)">
<path d="M126.583 17.6751C126.45 18.2235 126.161 18.7214 125.75 19.1085L120.25 24.4751C120.194 24.5332 120.149 24.601 120.117 24.6751C120.098 24.7518 120.098 24.8318 120.117 24.9085L121.417 32.5085C121.525 33.0685 121.467 33.6485 121.25 34.1751C121.049 34.6962 120.695 35.1438 120.233 35.4585C119.785 35.7893 119.255 35.9911 118.7 36.0418H118.483C117.995 36.0408 117.515 35.9207 117.083 35.6918L110.25 32.1251C110.179 32.0842 110.099 32.0626 110.017 32.0626C109.935 32.0626 109.854 32.0842 109.783 32.1251L102.95 35.7085C102.437 35.9751 101.86 36.0962 101.283 36.0585C100.723 36.0107 100.186 35.8088 99.7334 35.4751C99.2764 35.1487 98.9234 34.6973 98.7167 34.1751C98.504 33.6467 98.4462 33.0686 98.55 32.5085L99.85 24.9251C99.8743 24.8493 99.8743 24.7677 99.85 24.6918C99.8231 24.6188 99.7836 24.5512 99.7334 24.4918L94.2334 19.0918C93.8352 18.7043 93.5525 18.2139 93.4167 17.6751C93.2546 17.1314 93.2546 16.5522 93.4167 16.0085C93.5999 15.4733 93.9299 15.0004 94.369 14.6439C94.8081 14.2873 95.3386 14.0613 95.9 13.9918L103.4 12.8918C103.475 12.8899 103.546 12.8602 103.6 12.8085C103.664 12.7603 103.715 12.6974 103.75 12.6251L107.25 5.65848C107.488 5.15848 107.865 4.73681 108.333 4.44181C108.689 4.21701 109.089 4.07011 109.506 4.01075C109.923 3.9514 110.347 3.98094 110.752 4.09743C111.156 4.21393 111.532 4.41474 111.853 4.68666C112.175 4.95858 112.435 5.29546 112.617 5.67514L116.083 12.6085C116.125 12.6854 116.182 12.7534 116.25 12.8085C116.31 12.8613 116.387 12.8909 116.467 12.8918L124.083 13.9918C124.637 14.0751 125.157 14.3118 125.583 14.6751C126.002 15.0368 126.318 15.5018 126.5 16.0251C126.677 16.5585 126.707 17.1285 126.583 17.6751Z" fill="#FFFC2D"/>
</g>
<mask id="mask3_76_57" style="mask-type:luminance" maskUnits="userSpaceOnUse" x="135" y="3" width="34" height="34">
<path d="M135.333 3.9917H168.667V36.0084H135.333V3.9917Z" fill="white"/>
</mask>
<g mask="url(#mask3_76_57)">
<path d="M168.583 17.6751C168.45 18.2235 168.161 18.7214 167.75 19.1085L162.25 24.4751C162.194 24.5332 162.149 24.601 162.117 24.6751C162.098 24.7518 162.098 24.8318 162.117 24.9085L163.417 32.5085C163.525 33.0685 163.467 33.6485 163.25 34.1751C163.049 34.6962 162.695 35.1438 162.233 35.4585C161.785 35.7893 161.255 35.9911 160.7 36.0418H160.483C159.995 36.0408 159.515 35.9207 159.083 35.6918L152.25 32.1251C152.179 32.0842 152.099 32.0626 152.017 32.0626C151.935 32.0626 151.854 32.0842 151.783 32.1251L144.95 35.7085C144.437 35.9751 143.86 36.0962 143.283 36.0585C142.723 36.0107 142.186 35.8088 141.733 35.4751C141.276 35.1487 140.923 34.6973 140.717 34.1751C140.504 33.6467 140.446 33.0686 140.55 32.5085L141.85 24.9251C141.874 24.8493 141.874 24.7677 141.85 24.6918C141.823 24.6188 141.784 24.5512 141.733 24.4918L136.233 19.0918C135.835 18.7043 135.552 18.2139 135.417 17.6751C135.255 17.1314 135.255 16.5522 135.417 16.0085C135.6 15.4733 135.93 15.0004 136.369 14.6439C136.808 14.2873 137.339 14.0613 137.9 13.9918L145.4 12.8918C145.475 12.8899 145.546 12.8602 145.6 12.8085C145.664 12.7603 145.715 12.6974 145.75 12.6251L149.25 5.65848C149.488 5.15848 149.865 4.73681 150.333 4.44181C150.689 4.21701 151.089 4.07011 151.506 4.01075C151.923 3.9514 152.347 3.98094 152.752 4.09743C153.156 4.21393 153.532 4.41474 153.853 4.68666C154.175 4.95858 154.435 5.29546 154.617 5.67514L158.083 12.6085C158.125 12.6854 158.182 12.7534 158.25 12.8085C158.31 12.8613 158.387 12.8909 158.467 12.8918L166.083 13.9918C166.637 14.0751 167.157 14.3118 167.583 14.6751C168.002 15.0368 168.318 15.5018 168.5 16.0251C168.677 16.5585 168.707 17.1285 168.583 17.6751Z" fill="#FFFC2D"/>
</g>
<mask id="mask4_76_57" style="mask-type:luminance" maskUnits="userSpaceOnUse" x="176" y="3" width="34" height="34">
<path d="M176.333 3.9917H209.667V36.0084H176.333V3.9917Z" fill="white"/>
</mask>
<g mask="url(#mask4_76_57)">
<path d="M209.583 17.6751C209.45 18.2235 209.161 18.7214 208.75 19.1085L203.25 24.4751C203.194 24.5332 203.149 24.601 203.117 24.6751C203.098 24.7518 203.098 24.8318 203.117 24.9085L204.417 32.5085C204.525 33.0685 204.467 33.6485 204.25 34.1751C204.049 34.6962 203.695 35.1438 203.233 35.4585C202.785 35.7893 202.255 35.9911 201.7 36.0418H201.483C200.995 36.0408 200.515 35.9207 200.083 35.6918L193.25 32.1251C193.179 32.0842 193.099 32.0626 193.017 32.0626C192.935 32.0626 192.854 32.0842 192.783 32.1251L185.95 35.7085C185.437 35.9751 184.86 36.0962 184.283 36.0585C183.723 36.0107 183.186 35.8088 182.733 35.4751C182.276 35.1487 181.923 34.6973 181.717 34.1751C181.504 33.6467 181.446 33.0686 181.55 32.5085L182.85 24.9251C182.874 24.8493 182.874 24.7677 182.85 24.6918C182.823 24.6188 182.784 24.5512 182.733 24.4918L177.233 19.0918C176.835 18.7043 176.552 18.2139 176.417 17.6751C176.255 17.1314 176.255 16.5522 176.417 16.0085C176.6 15.4733 176.93 15.0004 177.369 14.6439C177.808 14.2873 178.339 14.0613 178.9 13.9918L186.4 12.8918C186.475 12.8899 186.546 12.8602 186.6 12.8085C186.664 12.7603 186.715 12.6974 186.75 12.6251L190.25 5.65848C190.488 5.15848 190.865 4.73681 191.333 4.44181C191.689 4.21701 192.089 4.07011 192.506 4.01075C192.923 3.9514 193.347 3.98094 193.752 4.09743C194.156 4.21393 194.532 4.41474 194.853 4.68666C195.175 4.95858 195.435 5.29546 195.617 5.67514L199.083 12.6085C199.125 12.6854 199.182 12.7534 199.25 12.8085C199.31 12.8613 199.387 12.8909 199.467 12.8918L207.083 13.9918C207.637 14.0751 208.157 14.3118 208.583 14.6751C209.002 15.0368 209.318 15.5018 209.5 16.0251C209.677 16.5585 209.707 17.1285 209.583 17.6751Z" fill="#FFFC2D"/>
</g>
</svg>
