<svg width="62" height="62" viewBox="0 0 62 62" fill="none" xmlns="http://www.w3.org/2000/svg">
<path d="M31 54.25C31.7233 54.25 32.3924 53.9219 33.7332 53.2632L44.5108 47.9828C49.2822 45.6449 51.6667 44.4747 51.6667 42.625V19.375M31 54.25C30.2767 54.25 29.6076 53.9219 28.2668 53.2632L17.4892 47.9828C12.7177 45.6449 10.3333 44.4747 10.3333 42.625V19.375M31 54.25V31" stroke="white" stroke-width="1.5" stroke-linecap="round" stroke-linejoin="round"/>
<path d="M28.2668 8.73683C29.6102 8.07808 30.2792 7.75 31 7.75C31.7233 7.75 32.3924 8.07808 33.7332 8.73683L44.5108 14.0172C49.2822 16.3551 51.6667 17.5253 51.6667 19.375C51.6667 21.2247 49.2822 22.3949 44.5108 24.7328L33.7332 30.0132C32.3898 30.6719 31.7207 31 31 31C30.2767 31 29.6076 30.6719 28.2668 30.0132L17.4892 24.7328C12.7177 22.3949 10.3333 21.2247 10.3333 19.375C10.3333 17.5253 12.7177 16.3551 17.4892 14.0172L28.2668 8.73683Z" stroke="white" stroke-width="1.5" stroke-linejoin="round"/>
</svg>
