<svg width="37" height="37" viewBox="0 0 37 37" fill="none" xmlns="http://www.w3.org/2000/svg">
<path d="M27.2212 8.17706C22.4051 3.43952 14.5965 3.43952 9.78035 8.17706C8.63687 9.2942 7.72825 10.6287 7.10789 12.102C6.48754 13.5753 6.16797 15.1578 6.16797 16.7564C6.16797 18.355 6.48754 19.9375 7.10789 21.4109C7.72825 22.8842 8.63687 24.2187 9.78035 25.3358L18.5 33.9152L27.2212 25.3358C28.3647 24.2187 29.2733 22.8842 29.8937 21.4109C30.514 19.9375 30.8336 18.355 30.8336 16.7564C30.8336 15.1578 30.514 13.5753 29.8937 12.102C29.2733 10.6287 28.3647 9.2942 27.2212 8.17706ZM18.5 20.811C17.4702 20.811 16.5036 20.4102 15.7743 19.6825C15.0525 18.9591 14.647 17.9788 14.647 16.9568C14.647 15.9349 15.0525 14.9546 15.7743 14.2312C16.502 13.5035 17.4702 13.1027 18.5 13.1027C19.5298 13.1027 20.498 13.5035 21.2257 14.2312C21.9476 14.9546 22.353 15.9349 22.353 16.9568C22.353 17.9788 21.9476 18.9591 21.2257 19.6825C20.498 20.4102 19.5298 20.811 18.5 20.811Z" fill="white"/>
</svg>
