<svg width="49" height="49" viewBox="0 0 49 49" fill="none" xmlns="http://www.w3.org/2000/svg">
<path d="M12.5052 24.8063C13.3899 22.5604 14.4536 20.3997 15.6963 18.324C16.939 16.2483 18.3423 14.2917 19.9063 12.4542L17.2521 11.8927C16.5715 11.7566 15.908 11.7906 15.2615 11.9948C14.6149 12.199 14.0535 12.5393 13.5771 13.0156L7.14584 19.4469C6.63542 19.9573 6.43942 20.5698 6.55784 21.2844C6.67625 21.999 7.07642 22.4924 7.75834 22.7646L12.5052 24.8063ZM42.5177 4.90002C38.9108 4.72988 35.4828 5.42745 32.2338 6.99273C28.9849 8.55801 26.0837 10.6167 23.5302 13.1688C21.8969 14.8021 20.4589 16.5715 19.2162 18.4771C17.9735 20.3827 16.8941 22.3903 15.9781 24.5C15.8079 24.9424 15.7229 25.3936 15.7229 25.8536C15.7229 26.3137 15.893 26.7132 16.2333 27.0521L22.6135 33.4323C22.9538 33.7726 23.3539 33.9427 23.814 33.9427C24.2741 33.9427 24.7246 33.8577 25.1656 33.6875C27.2753 32.7688 29.2829 31.688 31.1885 30.4454C33.0941 29.2027 34.8635 27.7653 36.4968 26.1334C39.0489 23.5813 41.1076 20.6807 42.6729 17.4318C44.2382 14.1828 44.935 10.7542 44.7635 7.14585C44.7635 6.87363 44.6955 6.60141 44.5594 6.32919C44.4233 6.05696 44.2531 5.81877 44.049 5.6146C43.8448 5.41044 43.6066 5.2403 43.3344 5.10419C43.0622 4.96808 42.7899 4.90002 42.5177 4.90002ZM29.5531 20.1104C28.7705 19.3278 28.3792 18.3669 28.3792 17.2276C28.3792 16.0884 28.7705 15.1267 29.5531 14.3427C30.3358 13.5587 31.2974 13.1674 32.438 13.1688C33.5786 13.1701 34.5396 13.5615 35.3208 14.3427C36.1021 15.124 36.4934 16.0856 36.4948 17.2276C36.4962 18.3696 36.1048 19.3305 35.3208 20.1104C34.5368 20.8904 33.5759 21.2817 32.438 21.2844C31.3001 21.2871 30.3385 20.8958 29.5531 20.1104ZM24.8573 37.1584L26.899 41.9052C27.1712 42.5858 27.6646 42.9941 28.3792 43.1302C29.0938 43.2663 29.7063 43.0792 30.2167 42.5688L36.6479 36.1375C37.1243 35.6611 37.4646 35.0915 37.6688 34.4286C37.8729 33.7658 37.907 33.0934 37.7708 32.4115L37.2604 29.7573C35.3889 31.3226 33.4241 32.7266 31.3661 33.9693C29.3081 35.212 27.1385 36.275 24.8573 37.1584ZM8.26875 32.7688C9.45973 31.5778 10.9059 30.9735 12.6073 30.9558C14.3087 30.9381 15.7549 31.5254 16.9458 32.7177C18.1368 33.9101 18.7323 35.3562 18.7323 37.0563C18.7323 38.7563 18.1368 40.2025 16.9458 41.3948C15.3125 43.0281 13.3811 43.9979 11.1516 44.3042C8.92209 44.6104 6.6851 44.9167 4.44063 45.2229C4.74688 42.9771 5.06198 40.7401 5.38592 38.512C5.70986 36.2838 6.67081 34.3694 8.26875 32.7688Z" fill="white"/>
</svg>
