<svg width="33" height="26" viewBox="0 0 33 26" fill="none" xmlns="http://www.w3.org/2000/svg">
<path d="M21.9057 0.798534L32.181 11.0738C32.6912 11.5847 32.9778 12.2772 32.9778 12.9992C32.9778 13.7212 32.6912 14.4137 32.181 14.9246L21.9075 25.2017C21.3963 25.7128 20.7031 26 19.9803 26C19.2574 26 18.5642 25.7128 18.0531 25.2017C17.542 24.6906 17.2548 23.9974 17.2548 23.2745C17.2548 22.5517 17.542 21.8585 18.0531 21.3473L23.6766 15.7238H2.72458C2.00198 15.7238 1.30897 15.4368 0.798012 14.9258C0.287054 14.4148 0 13.7218 0 12.9992C0 12.2766 0.287054 11.5836 0.798012 11.0726C1.30897 10.5617 2.00198 10.2746 2.72458 10.2746H23.6766L18.0549 4.6511C17.544 4.13997 17.2571 3.44684 17.2573 2.72417C17.2575 2.00151 17.5447 1.30851 18.0558 0.797626C18.5669 0.286744 19.2601 -0.000170238 19.9827 7.57813e-08C20.7054 0.00017039 21.3984 0.287412 21.9093 0.798534H21.9057Z" fill="white"/>
</svg>
