<svg width="44" height="44" viewBox="0 0 44 44" fill="none" xmlns="http://www.w3.org/2000/svg">
<path d="M16.5 38.5H14.6667C12.6408 38.5 11 36.861 11 34.8352V25.6667C11 23.8333 8.25 22 8.25 22C8.25 22 11 20.1667 11 18.3333V9.16667C11 8.19421 11.3863 7.26158 12.0739 6.57394C12.7616 5.88631 13.6942 5.5 14.6667 5.5H16.5M27.5 38.5H29.3333C31.3592 38.5 33 36.861 33 34.8352V25.6667C33 23.8333 35.75 22 35.75 22C35.75 22 33 20.1667 33 18.3333V9.16667C33 8.19421 32.6137 7.26158 31.9261 6.57394C31.2384 5.88631 30.3058 5.5 29.3333 5.5H27.5" stroke="white" stroke-width="1.5" stroke-linecap="round" stroke-linejoin="round"/>
</svg>
