<svg width="44" height="44" viewBox="0 0 44 44" fill="none" xmlns="http://www.w3.org/2000/svg">
<path fill-rule="evenodd" clip-rule="evenodd" d="M12.1 1.09997C11.2248 1.09997 10.3854 1.44765 9.76655 2.06652C9.14768 2.68539 8.80001 3.52475 8.80001 4.39997V39.6C8.80001 40.4752 9.14768 41.3146 9.76655 41.9334C10.3854 42.5523 11.2248 42.9 12.1 42.9H31.9C32.7752 42.9 33.6146 42.5523 34.2335 41.9334C34.8523 41.3146 35.2 40.4752 35.2 39.6V4.39997C35.2 3.52475 34.8523 2.68539 34.2335 2.06652C33.6146 1.44765 32.7752 1.09997 31.9 1.09997H12.1ZM11 4.39997C11 4.10823 11.1159 3.82844 11.3222 3.62215C11.5285 3.41586 11.8083 3.29997 12.1 3.29997H15.4V5.49997C15.4 5.79171 15.5159 6.0715 15.7222 6.27779C15.9285 6.48408 16.2083 6.59997 16.5 6.59997H27.5C27.7917 6.59997 28.0715 6.48408 28.2778 6.27779C28.4841 6.0715 28.6 5.79171 28.6 5.49997V3.29997H31.9C32.1917 3.29997 32.4715 3.41586 32.6778 3.62215C32.8841 3.82844 33 4.10823 33 4.39997V39.6C33 39.8917 32.8841 40.1715 32.6778 40.3778C32.4715 40.5841 32.1917 40.7 31.9 40.7H12.1C11.8083 40.7 11.5285 40.5841 11.3222 40.3778C11.1159 40.1715 11 39.8917 11 39.6V4.39997Z" fill="white"/>
</svg>
