<svg width="44" height="44" viewBox="0 0 44 44" fill="none" xmlns="http://www.w3.org/2000/svg">
<path d="M22 11C26.8033 11 30.9467 14.41 31.8817 19.1217L32.4317 21.8717L35.2367 22.0734C36.6148 22.1661 37.9068 22.7774 38.8524 23.7842C39.798 24.7911 40.3272 26.1188 40.3333 27.5C40.3333 30.525 37.8583 33 34.8333 33H11C6.94833 33 3.66667 29.7184 3.66667 25.6667C3.66667 21.9084 6.47167 18.7734 10.1933 18.3884L12.155 18.1867L13.0717 16.445C13.9149 14.8039 15.1946 13.4273 16.7699 12.4666C18.3451 11.5059 20.1549 10.9984 22 11ZM22 7.33337C16.7017 7.33337 12.1 10.34 9.80833 14.74C7.11376 15.0312 4.62185 16.3079 2.8114 18.3248C1.00095 20.3417 -0.000314787 22.9564 7.42367e-08 25.6667C7.42367e-08 31.735 4.93167 36.6667 11 36.6667H34.8333C39.8933 36.6667 44 32.56 44 27.5C44 22.66 40.2417 18.7367 35.475 18.4067C34.8592 15.2859 33.1789 12.4756 30.7213 10.456C28.2636 8.43637 25.181 7.33265 22 7.33337Z" fill="white"/>
</svg>
