<svg width="42" height="42" viewBox="0 0 42 42" fill="none" xmlns="http://www.w3.org/2000/svg">
<path d="M25.6287 4.24903C24.71 3.97811 23.7659 3.80219 22.8112 3.72403C20.6994 3.4742 18.5591 3.64067 16.5112 4.21403L16.3887 4.24903C12.7169 5.25729 9.47795 7.4439 7.17008 10.4726C4.86221 13.5012 3.61322 17.2042 3.61521 21.012C3.61719 24.8197 4.87005 28.5214 7.18108 31.5476C9.49212 34.5739 12.7333 36.7571 16.4062 37.7615C17.7504 38.1422 19.1393 38.3422 20.5362 38.3565C20.6921 38.3846 20.8504 38.3963 21.0087 38.3915C22.5645 38.3934 24.1132 38.1814 25.6112 37.7615C29.281 36.7536 32.5184 34.569 34.8265 31.5432C37.1346 28.5174 38.3857 24.8176 38.3877 21.0119C38.3897 17.2063 37.1425 13.5052 34.8375 10.477C32.5326 7.44873 29.2974 5.26076 25.6287 4.24903ZM25.1562 5.92903C27.4222 6.5559 29.5177 7.6854 31.2871 9.23359C33.0564 10.7818 34.4541 12.7088 35.3762 14.8715H27.9212C27.0302 11.4363 25.3931 8.23963 23.1262 5.50903C23.8124 5.59867 24.4909 5.73906 25.1562 5.92903ZM21.0087 5.77153C23.3985 8.362 25.1433 11.4798 26.1012 14.8715H15.8812C16.8342 11.4712 18.5931 8.35088 21.0087 5.77503V5.77153ZM26.5387 16.6215C27.0984 19.5172 27.0984 22.4933 26.5387 25.389H15.4787C15.1827 23.9496 15.0361 22.4835 15.0412 21.014C15.0374 19.5388 15.184 18.067 15.4787 16.6215H26.5387ZM16.7387 5.96403L16.8612 5.92903C17.5283 5.7505 18.2065 5.61605 18.8912 5.52653C16.6102 8.24495 14.9659 11.4391 14.0787 14.875H6.64999C7.56872 12.7365 8.95 10.8283 10.6944 9.28746C12.4389 7.74666 14.5032 6.61163 16.7387 5.96403ZM5.36374 21.014C5.36377 19.5261 5.58192 18.0462 6.01124 16.6215H13.6937C13.4278 18.0706 13.2931 19.5407 13.2912 21.014C13.2941 22.4815 13.4288 23.9457 13.6937 25.389H6.01124C5.58113 23.9705 5.36295 22.4963 5.36374 21.014ZM16.8612 36.0815C14.5931 35.4593 12.4953 34.3316 10.7253 32.7828C8.95528 31.234 7.559 29.3045 6.64124 27.139H14.0612C14.9568 30.583 16.6133 33.7823 18.9087 36.5015C18.2167 36.4127 17.5323 36.2724 16.8612 36.0815ZM15.8812 27.139H26.1012C25.1558 30.5411 23.4096 33.6674 21.0087 36.2565C18.6093 33.6607 16.853 30.5377 15.8812 27.139ZM25.1562 36.0815C24.4811 36.2554 23.7978 36.3956 23.1087 36.5015C25.3818 33.7725 27.025 30.5758 27.9212 27.139H35.3762C34.4563 29.3031 33.0593 31.2314 31.2896 32.7799C29.5199 34.3283 27.4233 35.457 25.1562 36.0815ZM28.3062 25.389C28.8492 22.4917 28.8492 19.5188 28.3062 16.6215H35.9887C36.4257 18.0445 36.644 19.5255 36.6362 21.014C36.6402 22.4952 36.4279 23.9691 36.0062 25.389H28.3062Z" fill="white"/>
</svg>
